<svg xmlns="http://www.w3.org/2000/svg" width="22.437" height="22.892" viewBox="0 0 51.437 48.892">
  <g id="All" transform="translate(-538.814 -1585.243)">
    <path id="Path_220926" data-name="Path 220926" d="M540.253,1617.245h13.125c.571,0,.72.106.889.65.253.816.507,1.631.747,2.45a.28.28,0,0,0,.321.241q6.772-.008,13.544,0a.3.3,0,0,0,.341-.256c.243-.83.5-1.653.76-2.478.152-.492.308-.608.823-.608h13.174c-.145-.394-.275-.749-.409-1.1q-2.324-6.168-4.643-12.337c-.08-.214-.167-.3-.41-.3-1.132.015-2.264.007-3.443.007v8.858l-9.164-7.052,9.128-7.106v4.128H579c.519,0,.659.094.845.59q1.766,4.7,3.528,9.394c.644,1.715,1.295,3.428,1.935,5.144a1.469,1.469,0,0,1,.1.507q.007,8.055,0,16.111c0,.576-.209.769-.825.769H570.574l-19.018,0H539.681c-.688,0-.866-.175-.866-.853v-6.618q0-4.655,0-9.308a1.846,1.846,0,0,1,.1-.632q2.7-7.2,5.409-14.393c.249-.663.325-.712,1.04-.712h3.776v-4.069l9.183,7.063-9.076,7.057-.087-.031v-8.827c-.13-.01-.2-.02-.27-.02-1.082,0-2.165,0-3.247-.005a.3.3,0,0,0-.331.233q-2.478,6.6-4.968,13.2C540.317,1617.029,540.293,1617.117,540.253,1617.245Zm21.892,9.393H553.3c-.472,0-.729.2-.74.56s.276.6.739.61c.031,0,.062,0,.093,0h17.437a1.642,1.642,0,0,0,.306-.021.6.6,0,0,0,.526-.618.583.583,0,0,0-.615-.529c-.093,0-.186,0-.278,0Z" fill="#a3a5aa"/>
    <path id="Path_220927" data-name="Path 220927" d="M550.216,1597.521h9.063v-5.229h-2.237a.63.63,0,0,1-.64-.343.6.6,0,0,1,.157-.7q2.521-2.867,5.045-5.733a.614.614,0,0,1,1.03.02q2.2,2.492,4.394,4.987c.218.247.439.493.655.741a.59.59,0,0,1-.453,1.028c-.752,0-1.5,0-2.282,0v5.185h9.123c-.348.275-.625.5-.906.715q-5.124,3.984-10.249,7.969a1.083,1.083,0,0,1-1.6,0q-5.13-3.953-10.263-7.9c-.284-.219-.566-.441-.849-.662Zm10.257,1.815h3.277V1592c0-.714.153-.867.87-.868h1.4l-3.906-4.421-3.893,4.421h1.445c.629,0,.812.182.812.8v7.4Z" fill="#a3a5aa"/>
    <path id="Path_220928" data-name="Path 220928" d="M550.249,1613.1c.408-.32.794-.624,1.181-.924q3.822-2.967,7.64-5.937a.3.3,0,0,1,.447.005c.4.326.809.638,1.221.948a2.108,2.108,0,0,0,2.756-.009c.482-.368.961-.741,1.454-1.122l9.05,6.958-.016.081Z" fill="#a3a5aa"/>
    <path id="Path_220929" data-name="Path 220929" d="M552.365,1588.18c0-.771-.006-1.543,0-2.315a.573.573,0,0,1,.56-.612.564.564,0,0,1,.593.545,2.258,2.258,0,0,1,.013.308q0,1.652,0,3.3c0,.36.014.721-.006,1.08a.58.58,0,0,1-.819.576.588.588,0,0,1-.347-.6c.005-.762,0-1.523,0-2.285Z" fill="#a3a5aa"/>
    <path id="Path_220930" data-name="Path 220930" d="M570.928,1588.181c0-.762-.006-1.523,0-2.284a.586.586,0,1,1,1.167-.009c.005,1.533.007,3.066,0,4.6a.6.6,0,0,1-.578.638.611.611,0,0,1-.588-.66C570.924,1589.7,570.928,1588.942,570.928,1588.181Z" fill="#a3a5aa"/>
    <path id="Path_220931" data-name="Path 220931" d="M570.93,1593.523c0-.072,0-.144,0-.216a.6.6,0,0,1,.577-.607.58.58,0,0,1,.584.563,2.859,2.859,0,0,1,0,.555.565.565,0,0,1-.585.557.59.59,0,0,1-.576-.6C570.925,1593.688,570.93,1593.606,570.93,1593.523Z" fill="#a3a5aa"/>
    <path id="Path_220932" data-name="Path 220932" d="M552.336,1593.524a2.371,2.371,0,0,1,.106-.505.513.513,0,0,1,.583-.307.5.5,0,0,1,.472.457,3.02,3.02,0,0,1,.007.7.534.534,0,0,1-.593.5.579.579,0,0,1-.543-.566c-.007-.092,0-.185,0-.278Z" fill="#a3a5aa"/>
  </g>
</svg>
