<?xml version="1.0" encoding="utf-8"?>
<!-- Generator: Adobe Illustrator 22.1.0, SVG Export Plug-In . SVG Version: 6.00 Build 0)  -->
<svg version="1.1" id="Layer_1" xmlns="http://www.w3.org/2000/svg" xmlns:xlink="http://www.w3.org/1999/xlink" x="0px" y="0px"
	 viewBox="0 0 7.3 4.2" style="enable-background:new 0 0 7.3 4.2;" xml:space="preserve">
<style type="text/css">
	.st0{fill:#D4DAE5;}
</style>
<g id="chevron-thin-down">
	<path class="st0" d="M6.7,3.8c0.1,0.1,0.3,0.1,0.4,0c0.1-0.1,0.1-0.3,0-0.4l0,0L4,0.3c-0.1-0.1-0.3-0.1-0.4,0L0.4,3.5
		c-0.1,0.1-0.1,0.3,0,0.4l0,0C0.5,4,0.7,4,0.8,3.9l3-2.9L6.7,3.8z"/>
	<path class="st0" d="M3.8,0c0.1,0,0.3,0,0.4,0.2l3,3.1c0.2,0.2,0.2,0.5,0,0.7C7,4.2,6.7,4.2,6.5,4L3.7,1.4L0.9,4.1
		C0.8,4.2,0.5,4.2,0.3,4L0.2,3.9C0,3.7,0,3.4,0.2,3.2l3.2-3C3.5,0.1,3.6,0,3.8,0z M6.9,3.7L6.9,3.7L3.8,0.6L0.6,3.7l0,0l3.1-3
		L6.9,3.7L6.9,3.7z"/>
</g>
</svg>
