<svg id="attachment-attach-svgrepo-com" xmlns="http://www.w3.org/2000/svg" width="9.445" height="10.262" viewBox="0 0 9.445 10.262">
  <g id="Group_4370" data-name="Group 4370" transform="translate(0 0)">
    <path id="Path_215642" data-name="Path 215642" d="M28.992.73a2.5,2.5,0,0,0-3.534,0L21.132,5.056a.35.35,0,1,0,.494.494l4.325-4.325A1.8,1.8,0,1,1,28.5,3.77L23.061,9.206a1.221,1.221,0,0,1-1.726-1.727L25.718,3.1A.642.642,0,1,1,26.627,4L23.354,7.277a.35.35,0,1,0,.495.494L27.121,4.5a1.341,1.341,0,0,0-1.9-1.9L20.84,6.984A1.92,1.92,0,0,0,23.556,9.7l5.436-5.436a2.5,2.5,0,0,0,0-3.534Z" transform="translate(-20.279 0.001)" fill="#d4dae5"/>
  </g>
</svg>
