<svg xmlns="http://www.w3.org/2000/svg" width="21.677" height="27.082" viewBox="0 0 21.677 27.082">
  <g id="Group_5370" data-name="Group 5370" transform="translate(-359 -377)">
    <g id="Union_5" data-name="Union 5" transform="translate(359 377)">
      <path id="Union_5-2" data-name="Union 5" d="M4833.085,16250.2a3.061,3.061,0,0,1-.875-2.164l6.006,0a3.053,3.053,0,0,1-.875,2.162,3.1,3.1,0,0,1-4.253,0Zm-7.484-3.364a.338.338,0,0,1-.314-.12c-.12,0-.206-.186-.226-.24a.6.6,0,0,1-.064-.242.872.872,0,0,1,.12-.357l.48-.6v-10.455a9.751,9.751,0,0,1,2.812-6.851,9.536,9.536,0,0,1,6.8-2.764,9.942,9.942,0,0,1,2.538.329,5.331,5.331,0,0,0-.676,2.317,7.344,7.344,0,0,0-1.861-.238,6.882,6.882,0,0,0-5.094,2.16,6.991,6.991,0,0,0-2.111,5.048v9.614h14.417v-9.614a6.952,6.952,0,0,0-.108-1.244h.156a5.359,5.359,0,0,0,2.2-.466,9.7,9.7,0,0,1,.152,1.71v10.454l.48.6a.811.811,0,0,1,.12.361.568.568,0,0,1-.058.24c-.025.054-.108.241-.226.241a.335.335,0,0,1-.313.118Zm12.663-18.669a4.188,4.188,0,1,1,0,.043Z" transform="translate(-4824.997 -16223.967)" fill="#266cd5"/>
    </g>
  </g>
</svg>
