<svg width="30" height="30" viewBox="0 0 30 30" fill="none" xmlns="http://www.w3.org/2000/svg">
<path d="M9.98629 21.5H8.98762C8.71186 21.5 8.48828 21.7239 8.48828 22C8.48828 22.2761 8.71186 22.5 8.98762 22.5H9.98629C10.2621 22.5 10.4856 22.2761 10.4856 22C10.4856 21.7239 10.2621 21.5 9.98629 21.5Z" fill="black"/>
<path d="M23.9678 21.5H11.9837C11.708 21.5 11.4844 21.7239 11.4844 22C11.4844 22.2761 11.708 22.5 11.9837 22.5H23.9678C24.2436 22.5 24.4672 22.2761 24.4672 22C24.4672 21.7239 24.2436 21.5 23.9678 21.5Z" fill="black"/>
<path d="M9.98629 18.5H8.98762C8.71186 18.5 8.48828 18.7239 8.48828 19C8.48828 19.2761 8.71186 19.5 8.98762 19.5H9.98629C10.2621 19.5 10.4856 19.2761 10.4856 19C10.4856 18.7239 10.2621 18.5 9.98629 18.5Z" fill="black"/>
<path d="M23.9678 18.5H11.9837C11.708 18.5 11.4844 18.7239 11.4844 19C11.4844 19.2761 11.708 19.5 11.9837 19.5H23.9678C24.2436 19.5 24.4672 19.2761 24.4672 19C24.4672 18.7239 24.2436 18.5 23.9678 18.5Z" fill="black"/>
<path d="M9.98629 15.5H8.98762C8.71186 15.5 8.48828 15.7239 8.48828 16C8.48828 16.2761 8.71186 16.5 8.98762 16.5H9.98629C10.2621 16.5 10.4856 16.2761 10.4856 16C10.4856 15.7239 10.2621 15.5 9.98629 15.5Z" fill="black"/>
<path d="M23.9678 15.5H11.9837C11.708 15.5 11.4844 15.7239 11.4844 16C11.4844 16.2761 11.708 16.5 11.9837 16.5H23.9678C24.2436 16.5 24.4672 16.2761 24.4672 16C24.4672 15.7239 24.2436 15.5 23.9678 15.5Z" fill="black"/>
<path d="M9.98629 12.5H8.98762C8.71186 12.5 8.48828 12.7239 8.48828 13C8.48828 13.2761 8.71186 13.5 8.98762 13.5H9.98629C10.2621 13.5 10.4856 13.2761 10.4856 13C10.4856 12.7239 10.2621 12.5 9.98629 12.5Z" fill="black"/>
<path d="M23.9678 12.5H11.9837C11.708 12.5 11.4844 12.7239 11.4844 13C11.4844 13.2761 11.708 13.5 11.9837 13.5H23.9678C24.2436 13.5 24.4672 13.2761 24.4672 13C24.4672 12.7239 24.2436 12.5 23.9678 12.5Z" fill="black"/>
<path d="M9.98629 9.5H8.98762C8.71186 9.5 8.48828 9.72387 8.48828 10C8.48828 10.2761 8.71186 10.5 8.98762 10.5H9.98629C10.2621 10.5 10.4856 10.2761 10.4856 10C10.4856 9.72387 10.2621 9.5 9.98629 9.5Z" fill="black"/>
<path d="M23.9678 9.5H11.9837C11.708 9.5 11.4844 9.72387 11.4844 10C11.4844 10.2761 11.708 10.5 11.9837 10.5H23.9678C24.2436 10.5 24.4672 10.2761 24.4672 10C24.4672 9.72387 24.2436 9.5 23.9678 9.5Z" fill="black"/>
<path d="M27.4575 7.4685C27.455 7.42469 27.4464 7.38144 27.432 7.34C27.4265 7.324 27.4225 7.3085 27.4155 7.293C27.3912 7.23863 27.3574 7.189 27.3156 7.1465L20.3249 0.1465C20.2825 0.104688 20.2329 0.0708125 20.1786 0.0465C20.1631 0.0395 20.1477 0.0355 20.1322 0.03C20.0904 0.015625 20.0469 0.006875 20.0028 0.004C19.9944 0.0055 19.9849 0 19.9739 0H5.99243C5.71667 0 5.4931 0.223875 5.4931 0.5V2H2.99641C2.72065 2 2.49707 2.22388 2.49707 2.5V29.5C2.49707 29.7761 2.72065 30 2.99641 30H23.9686C24.2443 30 24.4679 29.7761 24.4679 29.5V27H26.9646C27.2404 27 27.464 26.7761 27.464 26.5V7.5C27.464 7.489 27.4585 7.4795 27.4575 7.4685ZM20.4732 1.707L25.7592 7H20.4732V1.707ZM23.4693 29H3.49575V3H5.4931V26.5C5.4931 26.7761 5.71667 27 5.99243 27H23.4693V29ZM26.4653 26H6.49177V1H19.4746V7.5C19.4746 7.77612 19.6981 8 19.9739 8H26.4653V26Z" fill="black"/>
<path d="M11.9836 4.5H8.98762C8.71186 4.5 8.48828 4.72387 8.48828 5V8C8.48828 8.27612 8.71186 8.5 8.98762 8.5H11.9836C12.2594 8.5 12.483 8.27612 12.483 8V5C12.483 4.72387 12.2594 4.5 11.9836 4.5ZM11.4843 7.5H9.48696V5.5H11.4843V7.5Z" fill="black"/>
</svg>
