<svg xmlns="http://www.w3.org/2000/svg" width="14.671" height="16.062" viewBox="0 0 14.671 16.062">
  <path id="Path_4999" data-name="Path 4999" d="M3641.558,2146.395l13.917,7.652a.371.371,0,0,1,.143.143.362.362,0,0,1,0,.377.367.367,0,0,1-.143.143l-13.917,7.653a.335.335,0,0,1-.189.045.317.317,0,0,1-.181-.053.3.3,0,0,1-.136-.136.325.325,0,0,1-.053-.188v-15.3a.323.323,0,0,1,.053-.188.3.3,0,0,1,.136-.136.317.317,0,0,1,.181-.052A.331.331,0,0,1,3641.558,2146.395Zm.949,8.738v4.991l10.443-5.745-10.443-5.745v4.991h3.77v1.508Z" transform="translate(-3641 -2146.348)" fill="#fff"/>
</svg>
