<svg xmlns="http://www.w3.org/2000/svg" width="28.945" height="27.784" viewBox="0 0 28.945 27.784">
  <path id="calender_icon" data-name="calender icon" d="M12.648,14.5H9.432v2.778h3.216Zm6.432,0H15.864v2.778H19.08Zm6.432,0H22.3v2.778h3.216Zm3.216-9.724H27.12V2H23.9V4.778H11.04V2H7.824V4.778H6.216a3,3,0,0,0-3.2,2.778L3,27.005a3.02,3.02,0,0,0,3.216,2.778H28.728a3.03,3.03,0,0,0,3.216-2.778V7.557A3.03,3.03,0,0,0,28.728,4.778Zm0,22.227H6.216V11.724H28.728Z" transform="translate(-3 -2)" fill="#266cd5"/>
</svg>
