<svg xmlns="http://www.w3.org/2000/svg" width="67" height="66.614" viewBox="0 0 67 66.614">
  <path id="calender_icon" data-name="calender icon" d="M25.333,31.976H17.889v6.661h7.444Zm14.889,0H32.778v6.661h7.444Zm14.889,0H47.667v6.661h7.444ZM62.556,8.661H58.833V2H51.389V8.661H21.611V2H14.167V8.661H10.444c-4.132,0-7.407,3-7.407,6.661L3,61.953c0,3.664,3.313,6.661,7.444,6.661H62.556c4.094,0,7.444-3,7.444-6.661V15.323C70,11.659,66.65,8.661,62.556,8.661Zm0,53.291H10.444V25.315H62.556Z" transform="translate(-3 -2)" fill="#dce3ea"/>
</svg>
