<svg xmlns="http://www.w3.org/2000/svg" width="30.515" height="43.161" viewBox="0 0 30.515 43.161">
  <path id="Path_5214" data-name="Path 5214" d="M3380.217,9482.154l-3.229,4.568h-15.758v31.965h22.6V9496.4l3.229-4.568v29.144a2.951,2.951,0,0,1-.469,1.616,1.474,1.474,0,0,1-1.146.665h-25.832a1.476,1.476,0,0,1-1.146-.665,2.947,2.947,0,0,1-.468-1.616v-36.544a2.949,2.949,0,0,1,.468-1.621,1.464,1.464,0,0,1,1.146-.66Zm6.021-2.055,2.277,3.242-14.837,20.984H3371.4l-.016-3.24Z" transform="translate(-3358 -9480.1)" fill="#fff"/>
</svg>
