<svg xmlns="http://www.w3.org/2000/svg" width="21.757" height="21.757" viewBox="0 0 21.757 21.757">
  <g id="attachment-attach-svgrepo-com" transform="translate(0 10.427) rotate(-45)">
    <g id="Group_4370" data-name="Group 4370" transform="translate(0 0)">
      <path id="Path_215642" data-name="Path 215642" d="M13.6,1.141a3.906,3.906,0,0,0-5.517,0L1.333,7.894a.546.546,0,0,0,.772.772L8.858,1.913a2.809,2.809,0,1,1,3.973,3.973L4.344,14.373a1.906,1.906,0,0,1-2.7-2.7L8.493,4.833A1,1,0,1,1,9.911,6.251L4.8,11.362a.546.546,0,0,0,.772.772l5.11-5.11A2.094,2.094,0,0,0,7.721,4.061L.877,10.906a3,3,0,0,0,4.24,4.24L13.6,6.658a3.9,3.9,0,0,0,0-5.517Z" fill="#a1aab2"/>
    </g>
  </g>
</svg>
