<svg width="20" height="20" viewBox="0 0 20 20" fill="none" xmlns="http://www.w3.org/2000/svg">
<path fill-rule="evenodd" clip-rule="evenodd" d="M10 0C15.522 0 20 4.47803 20 10C20 15.522 15.522 20 10 20C4.47803 20 0 15.522 0 10C0 4.47803 4.47803 0 10 0ZM4.94567 13.6196L8.56528 10L4.94567 6.38039C4.73803 6.17268 4.73803 5.83386 4.94567 5.62622L5.62622 4.94567C5.83386 4.73803 6.17268 4.73803 6.38039 4.94567L10 8.56528L13.6196 4.94567C13.8273 4.73803 14.1661 4.73803 14.3738 4.94567L15.0543 5.62622C15.262 5.83386 15.262 6.17268 15.0543 6.38039L11.4347 10L15.0543 13.6196C15.262 13.8273 15.262 14.1661 15.0543 14.3738L14.3738 15.0543C14.1661 15.262 13.8273 15.262 13.6196 15.0543L10 11.4347L6.38039 15.0543C6.17268 15.262 5.83386 15.262 5.62622 15.0543L4.94567 14.3738C4.73803 14.1661 4.73803 13.8273 4.94567 13.6196Z" fill="#E4E5E6"/>
</svg>
