<svg xmlns="http://www.w3.org/2000/svg" width="20.437" height="23.892" viewBox="0 0 51.437 48.892">
  <g id="Delete" transform="translate(-541.772 -1702.877)">
    <g id="Group_6995" data-name="Group 6995">
      <path id="Path_220944" data-name="Path 220944" d="M578.838,1723.016c-.055.762-.107,1.48-.158,2.2q-.468,6.53-.937,13.057-.422,5.838-.849,11.676c-.1,1.427-.2,2.855-.317,4.281a2.981,2.981,0,0,1-3.159,2.914c-8.1,0-16.2-.015-24.305.013a3.136,3.136,0,0,1-3.208-2.982c-.222-2.983-.429-5.968-.648-8.951-.224-3.067-.457-6.132-.682-9.2q-.257-3.484-.5-6.971-.2-2.83-.4-5.662c-.008-.115-.011-.231-.018-.375Zm-20.262,17.051q0,5.658,0,11.318a1.03,1.03,0,0,0,1.155,1.164c1.017,0,2.035.005,3.052,0a1.034,1.034,0,0,0,1.127-1.127q0-11.354,0-22.708a1.041,1.041,0,0,0-1.126-1.131c-.982-.005-1.963,0-2.945,0-.913,0-1.263.357-1.263,1.271Q558.575,1734.461,558.576,1740.067Zm9.978.047h0q-.1,3.42-.206,6.841-.066,2.215-.125,4.432a1.025,1.025,0,0,0,1.15,1.159c.8,0,1.607.006,2.411,0a1.03,1.03,0,0,0,1.084-1.029q.087-1.237.158-2.477c.171-2.95.335-5.9.51-8.851q.336-5.7.684-11.4a1.021,1.021,0,0,0-1.133-1.206c-.993-.005-1.986,0-2.979,0a1.073,1.073,0,0,0-1.219,1.186Q568.721,1734.443,568.554,1740.114Zm-14.631-.04h0q-.176-5.689-.35-11.379a1.031,1.031,0,0,0-1.142-1.11c-.982,0-1.963,0-2.944,0-.916,0-1.29.413-1.234,1.32q.272,4.354.53,8.708.352,5.947.693,11.9c.041.708.073,1.417.153,2.121a.971.971,0,0,0,1.034.917c.839.01,1.678.014,2.518,0a.991.991,0,0,0,1.073-1.126Q554.1,1745.746,553.923,1740.074Z" fill="#a3a5aa"/>
      <path id="Path_220945" data-name="Path 220945" d="M576.16,1706.518l-33.269,15.28a23.913,23.913,0,0,1-1.049-2.741,2.856,2.856,0,0,1,1.631-3.134c2-.943,4.013-1.854,6.021-2.778,1-.459,2-.921,3-1.37.229-.1.265-.216.157-.435-.25-.51-.48-1.029-.718-1.544a1.383,1.383,0,0,1,.742-1.99q3.256-1.491,6.508-2.989a1.4,1.4,0,0,1,2.018.745c.231.505.475,1.005.693,1.516.1.241.214.28.454.169,1.757-.818,3.521-1.623,5.282-2.431,1.16-.533,2.315-1.075,3.481-1.594a3.022,3.022,0,0,1,4.251,1.571C575.625,1705.347,575.877,1705.907,576.16,1706.518Zm-22.077,4.513c.109-.047.174-.073.238-.1q3.107-1.425,6.212-2.846c.218-.1.238-.21.138-.411-.221-.444-.435-.892-.626-1.349-.1-.249-.206-.317-.47-.187-.656.324-1.329.613-1.994.919-1.394.64-2.786,1.285-4.183,1.92-.2.092-.269.178-.158.4.242.485.455.985.687,1.476A.894.894,0,0,0,554.083,1711.031Z" fill="#a3a5aa"/>
      <path id="Path_220946" data-name="Path 220946" d="M578.373,1720.505l-10.256-1.984,4.285-9.38,1.375,2.6a15.878,15.878,0,0,1,12.972-2.212,14.154,14.154,0,0,1,5.7,2.9c-.26-.038-.52-.081-.78-.116a15.742,15.742,0,0,0-14.451,5.272.433.433,0,0,0-.073.589C577.56,1718.92,577.94,1719.677,578.373,1720.505Z" fill="#a3a5aa"/>
    </g>
  </g>
</svg>
