<svg width="19" height="25" viewBox="0 0 19 25" fill="none" xmlns="http://www.w3.org/2000/svg">
<path d="M3.40358 0H11.7684L18.8491 7.38745V21.7478C18.8491 23.5441 17.3932 25 15.5969 25H3.40358C1.60726 25 0.151367 23.5441 0.151367 21.7478V3.25221C0.151367 1.45593 1.60726 0 3.40358 0V0Z" fill="#0263D1"/>
<path opacity="0.302" fill-rule="evenodd" clip-rule="evenodd" d="M11.7578 0V7.32677H18.8487L11.7578 0Z" fill="white"/>
<path d="M3.1709 17.8386V13.7H4.63693C4.93013 13.7 5.20314 13.7438 5.4559 13.8247C5.70867 13.909 5.93783 14.0303 6.14343 14.1921C6.34901 14.3539 6.5108 14.5696 6.62874 14.8392C6.74669 15.1088 6.80737 15.4188 6.80737 15.7693C6.80737 16.1198 6.74669 16.4299 6.62874 16.6995C6.5108 16.9691 6.34901 17.1848 6.14343 17.3465C5.93786 17.5083 5.70867 17.6296 5.4559 17.7139C5.20314 17.7948 4.93016 17.8386 4.63693 17.8386H3.1709ZM4.20554 16.9388H4.51223C4.67737 16.9388 4.8324 16.9186 4.97056 16.8815C5.1121 16.841 5.24016 16.777 5.36149 16.6927C5.48281 16.6085 5.57717 16.4872 5.64457 16.3288C5.71536 16.1737 5.74903 15.985 5.74903 15.7693C5.74903 15.5536 5.71533 15.3649 5.64457 15.2065C5.57717 15.0515 5.48281 14.9301 5.36149 14.8459C5.24016 14.7583 5.1121 14.6976 4.97056 14.6572C4.8324 14.6201 4.67737 14.5999 4.51223 14.5999H4.20554V16.9388ZM9.31813 17.8858C8.69466 17.8858 8.17902 17.6836 7.77123 17.2825C7.36344 16.8815 7.16121 16.376 7.16121 15.7693C7.16121 15.1627 7.36344 14.6572 7.77123 14.2562C8.17902 13.8551 8.69466 13.6529 9.31813 13.6529C9.9315 13.6529 10.4404 13.8551 10.8482 14.2562C11.2526 14.6572 11.4548 15.1627 11.4548 15.7693C11.4548 16.376 11.2526 16.8815 10.8482 17.2825C10.4404 17.6836 9.9315 17.8858 9.31813 17.8858ZM8.52276 16.6422C8.72833 16.8714 8.9912 16.986 9.31137 16.986C9.63154 16.986 9.89103 16.8714 10.0966 16.6422C10.3022 16.4097 10.4033 16.1198 10.4033 15.7693C10.4033 15.4188 10.3022 15.129 10.0966 14.8964C9.89106 14.6673 9.63154 14.5527 9.31137 14.5527C8.9912 14.5527 8.72833 14.6673 8.52276 14.8964C8.31719 15.129 8.2127 15.4188 8.2127 15.7693C8.2127 16.1198 8.31719 16.4097 8.52276 16.6422ZM13.9151 17.8858C13.3118 17.8858 12.8096 17.6971 12.412 17.3264C12.0109 16.9523 11.8121 16.4333 11.8121 15.7693C11.8121 15.1088 12.0143 14.5897 12.4187 14.2157C12.8265 13.8416 13.3219 13.6528 13.9151 13.6528C14.4509 13.6528 14.889 13.7843 15.2362 14.0505C15.58 14.3134 15.7788 14.6639 15.8293 15.102L14.7846 15.3143C14.7408 15.0852 14.6363 14.8998 14.4745 14.7616C14.3128 14.6234 14.124 14.5527 13.9083 14.5527C13.6117 14.5527 13.3657 14.6572 13.1669 14.8695C12.968 15.0851 12.8669 15.3817 12.8669 15.7693C12.8669 16.1569 12.968 16.4534 13.1635 16.6658C13.3623 16.8814 13.6084 16.9859 13.9083 16.9859C14.124 16.9859 14.3094 16.9253 14.461 16.804C14.6127 16.6826 14.707 16.5209 14.7475 16.3187L15.8158 16.5613C15.7181 16.9792 15.5024 17.3028 15.1654 17.5353C14.8317 17.7679 14.4138 17.8858 13.9151 17.8858Z" fill="white"/>
</svg>
