<svg xmlns="http://www.w3.org/2000/svg" width="16.841" height="16.841" viewBox="0 0 16.841 16.841">
  <path id="Settings" d="M3528,7736.78a8.851,8.851,0,0,1,.27-2.184,2.52,2.52,0,0,0,1.33-.313,2.685,2.685,0,0,0,.918-3.73,8.412,8.412,0,0,1,3.645-2.192,2.636,2.636,0,0,0,.935,1.048,2.469,2.469,0,0,0,2.644,0,2.561,2.561,0,0,0,.927-1.048,8.4,8.4,0,0,1,3.654,2.192,2.732,2.732,0,0,0-.413,1.354,2.686,2.686,0,0,0,1.322,2.377,2.493,2.493,0,0,0,1.339.313,8.977,8.977,0,0,1,0,4.367,2.488,2.488,0,0,0-2.316,1.31,2.708,2.708,0,0,0,.068,2.735,8.4,8.4,0,0,1-3.655,2.192,2.553,2.553,0,0,0-.927-1.049,2.467,2.467,0,0,0-2.643,0,2.638,2.638,0,0,0-.935,1.048,8.422,8.422,0,0,1-3.646-2.191,2.646,2.646,0,0,0,.4-1.354,2.639,2.639,0,0,0-1.322-2.376,2.437,2.437,0,0,0-1.33-.315,8.845,8.845,0,0,1-.27-2.184Zm4.042,2.621a4.532,4.532,0,0,1,.48,3.074,6.882,6.882,0,0,0,1.086.655,4.119,4.119,0,0,1,5.624,0,6.941,6.941,0,0,0,1.087-.655,4.4,4.4,0,0,1,2.813-5.041,8.509,8.509,0,0,0,0-1.311,4.375,4.375,0,0,1-2.812-5.04,6.145,6.145,0,0,0-1.094-.655,4.108,4.108,0,0,1-5.616,0,6.339,6.339,0,0,0-1.086.655,4.4,4.4,0,0,1-2.812,5.04,8.478,8.478,0,0,0,0,1.311A4.2,4.2,0,0,1,3532.042,7739.4Zm4.378,0a2.551,2.551,0,0,1-2.48-2.107,2.641,2.641,0,0,1,1.509-2.933,2.475,2.475,0,0,1,3.068.962,2.693,2.693,0,0,1-.311,3.309A2.481,2.481,0,0,1,3536.42,7739.4Zm0-1.748a.843.843,0,0,0,.81-.7.872.872,0,0,0-.5-.963.818.818,0,0,0-1.009.322.888.888,0,0,0,.1,1.09A.849.849,0,0,0,3536.42,7737.653Z" transform="translate(-3528 -7728.36)" fill="#fff"/>
</svg>
