<svg xmlns="http://www.w3.org/2000/svg" width="23.06" height="17.295" viewBox="0 0 23.06 17.295">
  <path id="Icon_awesome-folder-plus" data-name="Icon awesome-folder-plus" d="M20.9,7.382H12.251L9.368,4.5H2.162A2.162,2.162,0,0,0,0,6.662V19.633a2.162,2.162,0,0,0,2.162,2.162H20.9a2.162,2.162,0,0,0,2.162-2.162V9.544A2.162,2.162,0,0,0,20.9,7.382Zm-4.324,7.567a.72.72,0,0,1-.721.721H12.611v3.243a.72.72,0,0,1-.721.721H11.17a.72.72,0,0,1-.721-.721V15.67H7.206a.72.72,0,0,1-.721-.721v-.721a.72.72,0,0,1,.721-.721h3.243V10.265a.72.72,0,0,1,.721-.721h.721a.72.72,0,0,1,.721.721v3.243h3.243a.72.72,0,0,1,.721.721Z" transform="translate(0 -4.5)" fill="#d4dae5"/>
</svg>
