<svg xmlns="http://www.w3.org/2000/svg" width="18.022" height="17" viewBox="0 0 18.022 17">
  <path id="Icon_ionic-md-arrow-round-back" data-name="Icon ionic-md-arrow-round-back" d="M22.085,13.191H11.125l4.251-4.066a1.694,1.694,0,0,0,0-2.315,1.514,1.514,0,0,0-2.212,0L6.086,13.673a1.56,1.56,0,0,0-.461,1.147v.02a1.56,1.56,0,0,0,.461,1.147l7.073,6.863a1.514,1.514,0,0,0,2.212,0,1.694,1.694,0,0,0,0-2.315L11.12,16.469H22.08a1.6,1.6,0,0,0,1.567-1.639A1.586,1.586,0,0,0,22.085,13.191Z" transform="translate(-5.625 -6.33)" fill="#d4dae5"/>
</svg>
