<svg xmlns="http://www.w3.org/2000/svg" width="24.519" height="16.346" viewBox="0 0 24.519 16.346">
  <path id="Icon_awesome-eye" data-name="Icon awesome-eye" d="M24.371,12.051A13.653,13.653,0,0,0,12.259,4.5,13.655,13.655,0,0,0,.148,12.052a1.377,1.377,0,0,0,0,1.243,13.653,13.653,0,0,0,12.111,7.551,13.655,13.655,0,0,0,12.111-7.552A1.377,1.377,0,0,0,24.371,12.051ZM12.259,18.8a6.13,6.13,0,1,1,6.13-6.13A6.13,6.13,0,0,1,12.259,18.8Zm0-10.216a4.057,4.057,0,0,0-1.077.161A2.037,2.037,0,0,1,8.334,11.6a4.077,4.077,0,1,0,3.925-3.009Z" transform="translate(0 -4.5)" fill="#d4dae5"/>
</svg>
