<svg xmlns="http://www.w3.org/2000/svg" width="16.309" height="11.009" viewBox="0 0 16.309 11.009">
  <path id="Icon_zocial-email" data-name="Icon zocial-email" d="M.072,14.1V5.043q0-.016.047-.3L5.451,9.305.135,14.417A1.333,1.333,0,0,1,.072,14.1ZM.78,4.115a.678.678,0,0,1,.267-.047H15.406a.891.891,0,0,1,.283.047L10.342,8.692l-.708.566-1.4,1.148-1.4-1.148-.708-.566ZM.8,15.03,6.159,9.887,8.235,11.57l2.076-1.683,5.363,5.143a.755.755,0,0,1-.267.047H1.047A.712.712,0,0,1,.8,15.03ZM11.018,9.305l5.316-4.561a.939.939,0,0,1,.047.3V14.1a1.205,1.205,0,0,1-.047.315Z" transform="translate(-0.072 -4.068)" opacity="0.4"/>
</svg>
