<svg xmlns="http://www.w3.org/2000/svg" width="31.206" height="41.624" viewBox="0 0 31.206 41.624">
  <path id="Feather1" d="M-453.545,204.041a2.887,2.887,0,0,0-.851-.392c-1.3-.322-2.6-.617-3.905-.911-.5-.114-1.011-.2-1.517-.3,5.985-.351,11.845.55,17.7,1.582a2.325,2.325,0,0,0-.377-.15,63.269,63.269,0,0,0-11.542-2.553,36.753,36.753,0,0,0-7.376-.21,12.515,12.515,0,0,0-1.893.333.8.8,0,0,0-.653.756.832.832,0,0,0,.581.855,5.779,5.779,0,0,0,1.049.34c1.821.367,3.645.714,5.468,1.069.268.052.535.108.8.172.248.059.493.131.739.2l-.017.144c-5.745.695-11.511.34-17.291.327a.611.611,0,0,1,.038-.14q2.076-2.651,4.159-5.3a1.46,1.46,0,0,1,.5-.406,46.357,46.357,0,0,0,6.486-3.759,41.022,41.022,0,0,0,9.717-9.188,33.806,33.806,0,0,0,4.953-9.978,50.975,50.975,0,0,0,2.12-10c.058-.516.075-1.036.115-1.615-1.894,1.735-3.731,3.38-5.525,5.07q-5.532,5.215-11.024,10.471a29.986,29.986,0,0,0-5.933,7.4,17.233,17.233,0,0,0-2.236,7.889c-.016.823.086,1.648.134,2.473l.126.007c.058-.1.122-.207.174-.314a72.629,72.629,0,0,1,4.661-8,102.079,102.079,0,0,1,7.964-10.337c.635-.738,1.281-1.466,1.927-2.194l1.212-1.262a.8.8,0,0,1-.082.124,106.282,106.282,0,0,0-11.237,16.05,65.309,65.309,0,0,1-4.766,7.321c-.144.188-.318.353-.569.629l-.228-.755a.7.7,0,0,0-.1.114q-1.5,2.683-3,5.367a3.5,3.5,0,0,1-.278.375l.075.417.407-.3c.133,0,.243-.01.351,0,2.583.275,5.163.592,7.751.819a44.022,44.022,0,0,0,8.859.06,8.267,8.267,0,0,0,2.244-.579A.926.926,0,0,0-453.545,204.041Zm2.432-30.14h0l-.013,0Zm-.151.162h0l-.019,0Z" transform="translate(473.33 -164.915)" fill="#fff"/>
</svg>
