<svg xmlns="http://www.w3.org/2000/svg" xmlns:xlink="http://www.w3.org/1999/xlink" width="134.199" height="26.451" viewBox="0 0 134.199 26.451">
  <defs>
    <linearGradient id="linear-gradient" x1="0.5" x2="0.5" y2="1" gradientUnits="objectBoundingBox">
      <stop offset="0" stop-color="#f2f5fc"/>
      <stop offset="1" stop-color="#fcfdff"/>
    </linearGradient>
  </defs>
  <g id="Group_5957" data-name="Group 5957" transform="translate(-104.563 -521.664)">
    <g id="Group_5961" data-name="Group 5961">
      <path id="Path_216129" data-name="Path 216129" d="M150.037,555.438a4.068,4.068,0,0,1-3.4-1.588,6.72,6.72,0,0,1-1.236-4.241,6.493,6.493,0,0,1,1.231-4.136,4.079,4.079,0,0,1,3.392-1.563,3.536,3.536,0,0,1,3.327,1.669,18.775,18.775,0,0,1-.1-1.9v-3.568l2.633-.171v15.287h-2.281l-.292-1.508q-.171.271-.316.467a3.361,3.361,0,0,1-.427.452,2.5,2.5,0,0,1-.608.412,4.092,4.092,0,0,1-.824.271,4.872,4.872,0,0,1-1.1.116m.623-2q2.653,0,2.693-3.608a5.1,5.1,0,0,0-.684-2.975,2.364,2.364,0,0,0-2.04-.934,2.245,2.245,0,0,0-1.894.949,4.643,4.643,0,0,0-.709,2.8,4.69,4.69,0,0,0,.709,2.8,2.262,2.262,0,0,0,1.925.965" transform="translate(-26.155 -11.704)" fill="url(#linear-gradient)"/>
      <path id="Path_216130" data-name="Path 216130" d="M180.191,562.508a5.5,5.5,0,0,1-4.146-1.533,5.839,5.839,0,0,1-1.482-4.236,6.044,6.044,0,0,1,1.4-4.191,4.886,4.886,0,0,1,3.809-1.568,4.481,4.481,0,0,1,3.543,1.427,5.514,5.514,0,0,1,1.261,3.789q0,.171,0,.553t-.005.563h-7.347a3.477,3.477,0,0,0,.85,2.4,2.927,2.927,0,0,0,2.226.849,6.962,6.962,0,0,0,3.477-.945l.372,1.869a7.363,7.363,0,0,1-3.95,1.025m-2.925-6.854h4.824a3.118,3.118,0,0,0-.613-2.071,2.107,2.107,0,0,0-1.7-.724,2.321,2.321,0,0,0-1.713.7,3.193,3.193,0,0,0-.8,2.09" transform="translate(-44.828 -18.774)" fill="url(#linear-gradient)"/>
      <path id="Path_216131" data-name="Path 216131" d="M207.527,562.508a5.5,5.5,0,0,1-4.146-1.533,5.839,5.839,0,0,1-1.482-4.236,6.044,6.044,0,0,1,1.4-4.191,4.886,4.886,0,0,1,3.809-1.568,4.481,4.481,0,0,1,3.543,1.427,5.514,5.514,0,0,1,1.261,3.789q0,.171,0,.553t-.005.563h-7.347a3.477,3.477,0,0,0,.85,2.4,2.927,2.927,0,0,0,2.226.849,6.962,6.962,0,0,0,3.477-.945l.372,1.869a7.363,7.363,0,0,1-3.95,1.025m-2.925-6.854h4.824a3.118,3.118,0,0,0-.613-2.071,2.107,2.107,0,0,0-1.7-.724,2.321,2.321,0,0,0-1.713.7,3.193,3.193,0,0,0-.8,2.09" transform="translate(-62.334 -18.774)" fill="url(#linear-gradient)"/>
      <path id="Path_216132" data-name="Path 216132" d="M230.689,566.872V551.234h2.261l.282,1.548a3.726,3.726,0,0,1,1.442-1.352,4.208,4.208,0,0,1,2-.477,3.934,3.934,0,0,1,2.387.754,4.673,4.673,0,0,1,1.563,2.055,7.705,7.705,0,0,1,.532,2.94,6.656,6.656,0,0,1-1.241,4.176,4.018,4.018,0,0,1-3.362,1.613,4.24,4.24,0,0,1-1.894-.417,4.131,4.131,0,0,1-1.422-1.13q.08,1.447.08,1.628v4.171ZM236,560.48a2.135,2.135,0,0,0,1.854-.985,4.932,4.932,0,0,0,.679-2.814,4.721,4.721,0,0,0-.683-2.794,2.222,2.222,0,0,0-1.9-.935q-2.613,0-2.643,3.558a5.283,5.283,0,0,0,.678,3.01,2.308,2.308,0,0,0,2.015.96" transform="translate(-80.771 -18.756)" fill="url(#linear-gradient)"/>
      <path id="Path_216133" data-name="Path 216133" d="M265.573,555.438a4.226,4.226,0,0,1-2.045-.5,3.56,3.56,0,0,1-1.332-1.131l-.261,1.407h-2.282V540.111l2.633-.171v3.417q0,1-.06,2.261a4.093,4.093,0,0,1,3.407-1.708,3.941,3.941,0,0,1,3.312,1.568,6.564,6.564,0,0,1,1.2,4.1,6.776,6.776,0,0,1-1.242,4.246,3.987,3.987,0,0,1-3.331,1.613m-.633-2a2.193,2.193,0,0,0,1.88-1,4.847,4.847,0,0,0,.7-2.824,4.7,4.7,0,0,0-.688-2.784,2.188,2.188,0,0,0-1.865-.945q-2.674,0-2.7,3.608a5.24,5.24,0,0,0,.674,2.985,2.289,2.289,0,0,0,2,.955" transform="translate(-99.32 -11.704)" fill="url(#linear-gradient)"/>
      <path id="Path_216134" data-name="Path 216134" d="M293.734,555.377a5.7,5.7,0,0,1-1.884-.266,2.443,2.443,0,0,1-1.181-.849,3.517,3.517,0,0,1-.6-1.387,9.8,9.8,0,0,1-.171-2V540.111l2.633-.171v10.885a3.967,3.967,0,0,0,.352,2.015,1.531,1.531,0,0,0,1.367.527,9.373,9.373,0,0,0,1.277-.11l.07,1.879q-.01,0-.246.051c-.157.033-.308.062-.452.085s-.327.047-.548.07a5.745,5.745,0,0,1-.613.035" transform="translate(-118.687 -11.704)" fill="url(#linear-gradient)"/>
      <path id="Path_216135" data-name="Path 216135" d="M311.862,561.911a6.108,6.108,0,0,1-6.93.005,3.846,3.846,0,0,1-1.311-3.156v-7.025h2.643v6.924a2.565,2.565,0,0,0,.517,1.789,2.157,2.157,0,0,0,1.643.553,2.106,2.106,0,0,0,1.613-.548,2.6,2.6,0,0,0,.507-1.794v-6.924h2.633v7.025a3.841,3.841,0,0,1-1.316,3.151" transform="translate(-127.477 -19.258)" fill="url(#linear-gradient)"/>
      <path id="Path_216136" data-name="Path 216136" d="M336.054,562.508a5.5,5.5,0,0,1-4.146-1.533,5.838,5.838,0,0,1-1.483-4.236,6.044,6.044,0,0,1,1.4-4.191,4.886,4.886,0,0,1,3.809-1.568,4.481,4.481,0,0,1,3.543,1.427,5.514,5.514,0,0,1,1.261,3.789q0,.171-.005.553t-.005.563H333.08a3.476,3.476,0,0,0,.849,2.4,2.927,2.927,0,0,0,2.226.849,6.962,6.962,0,0,0,3.477-.945l.372,1.869a7.363,7.363,0,0,1-3.949,1.025m-2.925-6.854h4.824a3.117,3.117,0,0,0-.613-2.071,2.107,2.107,0,0,0-1.7-.724,2.321,2.321,0,0,0-1.713.7,3.193,3.193,0,0,0-.8,2.09" transform="translate(-144.643 -18.774)" fill="url(#linear-gradient)"/>
      <path id="Path_216137" data-name="Path 216137" d="M359.208,562.78l-3.347-11.045h2.683l2.121,8.1q.07-.231,1.146-3.95t1.216-4.151h2.7q.13.422,1.156,4.11t1.105,3.96l2.181-8.071h2.643l-3.457,11.045h-2.623q-.131-.432-1.221-4.372t-1.181-4.251q-.2.733-1.282,4.422t-1.251,4.2Z" transform="translate(-160.931 -19.258)" fill="url(#linear-gradient)"/>
      <path id="Path_216138" data-name="Path 216138" d="M405.764,562.508a4.892,4.892,0,0,1-3.86-1.588,6.967,6.967,0,0,1,0-8.4,5.1,5.1,0,0,1,3.97-1.543,4.924,4.924,0,0,1,3.875,1.573,6.951,6.951,0,0,1-.015,8.392,5.086,5.086,0,0,1-3.97,1.563m.07-2a2.282,2.282,0,0,0,2.01-.975,6.155,6.155,0,0,0,0-5.6,2.6,2.6,0,0,0-4.045,0,4.879,4.879,0,0,0-.678,2.809,4.814,4.814,0,0,0,.683,2.784,2.317,2.317,0,0,0,2.03.975" transform="translate(-189.516 -18.774)" fill="url(#linear-gradient)"/>
      <path id="Path_216139" data-name="Path 216139" d="M431.132,562.691V551.646h2.211l.342,1.688a3.489,3.489,0,0,1,3.146-1.738,5.035,5.035,0,0,1,.7.04l-.04,2.2a5.607,5.607,0,0,0-.834-.061,2.831,2.831,0,0,0-2.176.774,3.04,3.04,0,0,0-.719,2.151v5.99Z" transform="translate(-209.135 -19.168)" fill="url(#linear-gradient)"/>
      <path id="Path_216140" data-name="Path 216140" d="M448.407,555.227V540.111l2.633-.171v6.784l-.06,2.232.206-.2.216-.211q.553-.653,1.2-1.347t1.638-1.7q.99-1,1.291-1.317h3.136l-4.543,4.7,4.834,6.342h-3.186l-3.638-5.015-1.1.864v4.151Z" transform="translate(-220.198 -11.704)" fill="url(#linear-gradient)"/>
    </g>
    <path id="Path_216141" data-name="Path 216141" d="M114.089,532.359a20.194,20.194,0,0,0-.849-1.86c-.336-.653-.709-1.289-1.08-1.926a31.173,31.173,0,0,0-1.946-2.869c-.76-1.022-1.577-2-2.425-2.958-.322-.363-.651-.721-.976-1.082l-.031.021c.129.372.268.741.385,1.117a27.287,27.287,0,0,1,.753,2.938,23.561,23.561,0,0,1,.114,8.361,26.127,26.127,0,0,1-.7,3.094c-.181.625-.394,1.242-.622,1.852-.251.673-.511,1.344-.81,2-.362.793-.767,1.569-1.155,2.351-.055.112-.118.224-.179.338h5.8a22.152,22.152,0,0,0,3.757-11.245.873.873,0,0,0-.036-.13" transform="translate(0 0)" fill="url(#linear-gradient)"/>
    <path id="Path_216142" data-name="Path 216142" d="M128.727,548.782c.12-.4.248-.808.338-1.219a14.7,14.7,0,0,0,.3-3.327,24.578,24.578,0,0,0-.785-5.725c-.1-.387-.2-.773-.3-1.159h0c-.043-.128-.088-.255-.129-.384q-.159-.5-.315-.993l-.052-.1-.007-.012c-.794-2.233-2.747-5.822-3.442-6.31a23.433,23.433,0,0,1,1.146,6.754c.007.414,0,.825-.019,1.235a22.153,22.153,0,0,1-3.757,11.245h7.023Z" transform="translate(-10.977 -5.048)" fill="url(#linear-gradient)"/>
  </g>
</svg>
