<svg xmlns="http://www.w3.org/2000/svg" width="20.437" height="20.892" viewBox="0 0 51.437 48.892">
  <g id="Inbox" transform="translate(-7011.131 -1929.261)">
    <path id="Path_220942" data-name="Path 220942" d="M539.791,2072.492h6.288a8.355,8.355,0,0,1,4.418,1.126,7.9,7.9,0,0,1,2.71,2.713,15.324,15.324,0,0,0,1.416,2.175,5.34,5.34,0,0,0,4.192,1.775c2.2.012,4.4.025,6.6,0a5.485,5.485,0,0,0,5.119-3.069,8.712,8.712,0,0,1,2.76-3.31,6.982,6.982,0,0,1,3.7-1.327c2.347-.072,4.7-.058,7.045-.08h.508c-.057-.151-.089-.262-.137-.366q-2.619-5.64-5.236-11.282a.477.477,0,0,0-.515-.307q-2.238.016-4.475,0a1.182,1.182,0,0,1-1.278-1.008,1.158,1.158,0,0,1,.838-1.3,3.086,3.086,0,0,1,.627-.072c1.752-.005,3.505.011,5.258-.009a1.451,1.451,0,0,1,1.478.949c2.18,4.722,4.382,9.433,6.569,14.152a1.591,1.591,0,0,1,.139.645c.008,4.823.019,9.647,0,14.47a6.274,6.274,0,0,1-6.419,6.261q-14.245.007-28.492,0-5.052,0-10.106,0a6.2,6.2,0,0,1-4.379-1.677,6.076,6.076,0,0,1-2.019-4.57q-.031-7.234.007-14.47a2.044,2.044,0,0,1,.312-.883c.816-1.521,1.652-3.031,2.479-4.546q2.622-4.808,5.24-9.617a1.241,1.241,0,0,1,1.173-.709c1.454,0,2.909,0,4.363,0a1.247,1.247,0,0,1,1.251.706,1.118,1.118,0,0,1-.155,1.225,1.252,1.252,0,0,1-1.052.458c-1.119,0-2.238,0-3.357,0a.46.46,0,0,0-.479.255q-3.13,5.718-6.276,11.428C539.877,2072.285,539.853,2072.353,539.791,2072.492Z" transform="translate(6474.737 -116.473)" fill="#a3a5aa"/>
    <path id="Path_220943" data-name="Path 220943" d="M560.918,2069.5v-.436q0-10.923,0-21.846a1.443,1.443,0,0,1,.421-1.184,1.139,1.139,0,0,1,1.22-.206,1.2,1.2,0,0,1,.753,1.106c.012.135.005.273.005.409V2069.6c.156-.143.246-.219.329-.3q2.795-2.791,5.588-5.584a1.185,1.185,0,1,1,1.7,1.651q-2.251,2.281-4.513,4.554-1.653,1.667-3.309,3.331a1.208,1.208,0,0,1-1.967.014q-3.916-3.937-7.825-7.883a1.162,1.162,0,0,1-.06-1.695,1.179,1.179,0,0,1,1.752.038q2.7,2.7,5.4,5.405a4.537,4.537,0,0,1,.362.47Z" transform="translate(6474.737 -116.473)" fill="#a3a5aa"/>
  </g>
</svg>
