<svg id="Group_5081" data-name="Group 5081" xmlns="http://www.w3.org/2000/svg" width="43.661" height="60.63" viewBox="0 0 43.661 60.63">
  <rect id="Rectangle_3447" data-name="Rectangle 3447" width="43.661" height="60.63" rx="4" fill="#f1f2f4"/>
  <path id="Path_215807" data-name="Path 215807" d="M300.686,172.6v14.8h-1.408a.7.7,0,0,0-1.409,0h-1.408a.7.7,0,0,0-1.409,0h-1.408a.7.7,0,0,0-1.409,0h-1.408a.7.7,0,1,0-1.408,0H288.01a.7.7,0,0,0-1.408,0h-1.409a.7.7,0,1,0-1.408,0h-1.409a.7.7,0,1,0-1.408,0H279.56a.7.7,0,0,0-1.409,0h-1.408a.7.7,0,0,0-1.409,0h-1.408a.7.7,0,1,0-1.408,0h-1.409a.7.7,0,1,0-1.408,0h-1.409a.7.7,0,1,0-1.408,0h-1.409a.7.7,0,1,0-1.408,0h-1.408a.7.7,0,0,0-1.409,0h-1.408a.7.7,0,0,0-1.409,0h-1.408V172.6a2.6,2.6,0,0,1,2.6-2.6h38.457A2.6,2.6,0,0,1,300.686,172.6Z" transform="translate(-257.025 -170)" fill="#266cd5"/>
  <text id="JUNE" transform="translate(19.209 11.196)" fill="#fff" font-size="10" font-family="Rubik-Medium, Rubik" font-weight="500"><tspan x="-13" y="0">JUNE</tspan></text>
  <text id="WED" transform="translate(18.944 54.436)" fill="#14192e" font-size="9" font-family="Rubik-Medium, Rubik" font-weight="500"><tspan x="-9" y="0">WED</tspan></text>
  <text id="_29" data-name="29" transform="translate(19.869 37.309)" fill="#14192e" font-size="16" font-family="Rubik-Medium, Rubik" font-weight="500"><tspan x="-9" y="0">29</tspan></text>
</svg>
