<svg xmlns="http://www.w3.org/2000/svg" width="20.628" height="20.965" viewBox="0 0 39.628 52.965">
  <g id="Junk" transform="translate(-542.298 -1475.473)">
    <path id="Path_220940" data-name="Path 220940" d="M562.11,1489.356h16.451a1.294,1.294,0,0,1,1.46,1.579c-.17,2.347-.329,4.695-.5,7.042-.192,2.63-.4,5.259-.59,7.889-.149,2.03-.284,4.06-.433,6.089-.193,2.631-.4,5.26-.59,7.89-.1,1.383-.21,2.766-.29,4.15a4.741,4.741,0,0,1-4.486,4.414c-2.445.051-4.892.019-7.338.02-4.8,0-9.6.008-14.4-.006a4.631,4.631,0,0,1-4.247-2.545,4.3,4.3,0,0,1-.528-1.817q-.342-4.711-.688-9.422-.307-4.2-.614-8.4-.341-4.659-.683-9.319-.223-3.027-.457-6.053a1.3,1.3,0,0,1,1.383-1.507H562.11Zm-7.919,18.772q-.139-4.57-.282-9.141c-.048-1.534-.1-3.069-.162-4.6a1.172,1.172,0,0,0-1.188-1.192,1.2,1.2,0,0,0-1.152,1.3q.1,3.479.218,6.957.191,5.8.385,11.594.141,4.349.277,8.7a1.176,1.176,0,0,0,1.172,1.138,1.158,1.158,0,0,0,1.159-1.177c0-.489-.014-.978-.03-1.467Q554.391,1514.18,554.191,1508.128Zm15.784-.126h.009c-.046,1.466-.1,2.933-.139,4.4q-.133,4.587-.261,9.174a1.182,1.182,0,1,0,2.358.09c.019-.489.014-.978.028-1.467q.2-6.838.4-13.675c.057-1.933.119-3.865.173-5.8.06-2.115.119-4.229.166-6.344a1.167,1.167,0,0,0-1.15-1.191,1.188,1.188,0,0,0-1.176,1.136Q570.174,1501.164,569.975,1508Zm-6.693.027v-13.035c0-.228.008-.456,0-.683a1.17,1.17,0,0,0-1.495-1.064,1.2,1.2,0,0,0-.841,1.319q0,13.29,0,26.582c0,.216-.012.433.006.647a1.107,1.107,0,0,0,.785,1.014,1.171,1.171,0,0,0,1.548-1.2Q563.284,1514.82,563.282,1508.029Z" fill="#a3a5aa"/>
    <path id="Path_220941" data-name="Path 220941" d="M573,1481.507c1.774,0,3.491,0,5.208,0a3.542,3.542,0,0,1,3.709,3.705,4.329,4.329,0,0,1-.025.782,1.3,1.3,0,0,1-1.415,1.021H549.938c-2.036,0-4.073-.022-6.108.009a1.411,1.411,0,0,1-1.532-1.534,3.888,3.888,0,0,1,1.142-3.023,3.4,3.4,0,0,1,2.374-.958c1.82-.007,3.641,0,5.461,0h.387c.026-.578.032-1.132.078-1.682a4.86,4.86,0,0,1,4.578-4.32q5.972-.06,11.944-.005a4.866,4.866,0,0,1,4.741,4.88C573.009,1480.741,573,1481.1,573,1481.507Zm-2.926-.014c0-.293-.014-.564,0-.834a2.088,2.088,0,0,0-2.227-2.257c-2.773.05-5.548.015-8.323.015-.955,0-1.91-.009-2.865,0a1.889,1.889,0,0,0-1.9,1.325,11.1,11.1,0,0,0-.2,1.753Z" fill="#a3a5aa"/>
  </g>
</svg>
