<svg xmlns="http://www.w3.org/2000/svg" width="146.987" height="148" viewBox="0 0 146.987 148">
  <g id="Group_4758" data-name="Group 4758" transform="translate(-886.507 -505)">
    <g id="Group_4760" data-name="Group 4760">
      <g id="Group_4758-2" data-name="Group 4758" transform="translate(0 -127)">
        <path id="Path_215718" data-name="Path 215718" d="M96.938,74.721a25.2,25.2,0,0,1-13.714,13.7c-1.138.436-4.029,1.628-5.114.365s.889-3.308,1.5-4.162a71.045,71.045,0,0,1,6.466-7.035A73.371,73.371,0,0,1,93.1,71.11c.889-.649,3.006-2.49,4.171-1.458S97.382,73.574,96.938,74.721Z" transform="translate(820.697 577.655)" />
        <path id="Path_215720" data-name="Path 215720" d="M96.97,197.807c.436,1.121,1.592,3.9.338,4.962s-3.317-.836-4.18-1.485a74.364,74.364,0,0,1-7.035-6.474,71.151,71.151,0,0,1-6.474-7.044c-.631-.827-2.508-3-1.467-4.127s4,0,5.14.48A25.693,25.693,0,0,1,96.97,197.807Z" transform="translate(820.686 565.062)" />
      </g>
      <g id="Group_4759" data-name="Group 4759" transform="translate(0 -130)">
        <g id="Group_4758-3" data-name="Group 4758" transform="translate(888.332 637.843)" opacity="0.08">
          <path id="Path_3" data-name="Path 3" d="M183.812,153.1a11.527,11.527,0,0,0,.053-1.236,21.718,21.718,0,0,1,6.288-15.67c2-1.983,4-3.949,5.95-5.985A18.507,18.507,0,0,1,211.16,124.7a8.109,8.109,0,0,0,.934.053c5.336.125,10.459-3.967,9.151-9.667s-2.953-12.086-12.62-11.926a6.228,6.228,0,0,1-.889-.151,27.071,27.071,0,0,1-15.563-8.057q-3.184-3.317-6.225-6.732a32.426,32.426,0,0,1-7.906-15.546,9.875,9.875,0,0,0-.231-1.058,18.134,18.134,0,0,0-4.891-7.853,16.1,16.1,0,0,0-7.5-4.518c-5.71-1.281-9.4,3.9-9.231,9.071.213,6.6,5.959,12.131,12.451,12.949h.231a23.341,23.341,0,0,1,14.158,7.613c2.926,3.2,5.781,6.457,8.787,9.578,3.726,3.886,6.892,8.751,7.524,14.229v.142a16.9,16.9,0,0,1-4.562,13.642c-2.721,2.881-5.381,5.807-8.226,8.573a22.829,22.829,0,0,1-15.074,6.225h-.338c-7.115.347-13.554,5.923-13.66,13.278a11.748,11.748,0,0,0,12.682,11.89A15.341,15.341,0,0,0,183.812,153.1Z" transform="translate(-76.311 -59.048)" />
          <path id="Path_4" data-name="Path 4" d="M122.175,176.374a10.562,10.562,0,0,0,1.3.053c5.994-.062,12.451,2.081,16.648,6.492,1.974,2.046,3.931,4.118,5.905,6.163A18.16,18.16,0,0,1,151,204.06c0,.3-.071.6-.089.889-.2,3.637,1.725,7.622,5.336,8.8,4.127,1.334,9.961-.818,13.029-3.557,1.779-1.592,2.526-3.833,3.175-6.145.587-2.108.24-4.136.889-6.279a32.905,32.905,0,0,1,7.3-12.451q3.122-3.388,6.314-6.715a27.908,27.908,0,0,1,15.394-8.12c.356-.053.7-.169,1.076-.222,7.826-1.014,11.295-6.59,12.575-12.237a6.981,6.981,0,0,0-1.708-6.554,9.471,9.471,0,0,0-7.346-2.419,14.4,14.4,0,0,0-12.967,12.068v.213c-.676,5.389-3.815,10.21-7.542,14.034-3.041,3.086-5.923,6.323-8.893,9.5-3.708,3.922-8.555,6.955-14,7.568h-.142a16.524,16.524,0,0,1-13.625-4.767c-2.8-2.828-5.523-5.745-8.351-8.556a21.673,21.673,0,0,1-6.35-14.719v-.24c-.285-7.346-6.848-12.869-13.989-13.029-6.7-.151-12.851,4.731-12.344,11.775C109.227,169.793,115.4,175.743,122.175,176.374Z" transform="translate(-71.059 -69.003)" />
          <path id="Path_5" data-name="Path 5" d="M99,77.912A25.24,25.24,0,0,1,85.324,91.626c-1.138.436-4.029,1.619-5.114.365s.889-3.317,1.512-4.171a71.955,71.955,0,0,1,6.466-7.035,72.245,72.245,0,0,1,7.044-6.474c.889-.658,3-2.49,4.171-1.459S99.447,76.765,99,77.912Z" transform="translate(-67.869 -60.542)" />
          <path id="Path_6" data-name="Path 6" d="M211.83,87.814c.622.827,2.508,3,1.5,4.153s-3.958.053-5.114-.4A25.4,25.4,0,0,1,194.506,77.8c-.445-1.138-1.61-3.94-.356-5s3.326.889,4.162,1.5a71.129,71.129,0,0,1,7.044,6.466A72.229,72.229,0,0,1,211.83,87.814Z" transform="translate(-80.45 -60.536)" />
          <path id="Path_7" data-name="Path 7" d="M99.021,201c.445,1.121,1.592,3.9.347,4.971s-3.317-.836-4.18-1.494A70.042,70.042,0,0,1,88.153,198a70.059,70.059,0,0,1-6.474-7.035c-.64-.836-2.508-3-1.476-4.127s4.011,0,5.14.471A25.631,25.631,0,0,1,99.021,201Z" transform="translate(-67.869 -73.136)" />
          <path id="Path_8" data-name="Path 8" d="M211.833,190.964a72.268,72.268,0,0,1-6.474,7.044,71.041,71.041,0,0,1-7.044,6.465c-.836.64-3,2.5-4.171,1.53s-.1-3.789.338-4.9a25.9,25.9,0,0,1,13.7-13.749c1.147-.462,4.02-1.716,5.14-.507S212.447,190.155,211.833,190.964Z" transform="translate(-80.453 -73.134)" />
          <path id="Path_9" data-name="Path 9" d="M119.34,187.257h-.249c-5.852-.658-11.135-3.949-15.119-8.173-2.357-2.552-4.687-5.132-7.115-7.6-4.02-4.118-7.444-9.258-8.173-15.119v-.293a16.551,16.551,0,0,1,4.927-14.478c1.974-1.868,3.993-3.7,5.879-5.665a22.6,22.6,0,0,1,16.6-6.768h.311a14.14,14.14,0,0,0,13.98-13.616c.133-7.115-5.47-13.491-12.816-12.984-7.115.489-13.207,6.981-13.7,14.016v.294a25.2,25.2,0,0,1-6.8,16.417c-1.974,1.974-3.966,3.931-6.012,5.825a19.566,19.566,0,0,1-15.057,4.874h-.222a9.516,9.516,0,0,0-7.417,2.392,7.115,7.115,0,0,0-1.779,6.563c1.574,8.075,5.4,11.188,12.709,12.255a3.691,3.691,0,0,1,.427.1,31.607,31.607,0,0,1,16.008,8.787q2.979,3.068,5.879,6.225a34.471,34.471,0,0,1,8.449,15.635,2.418,2.418,0,0,0,.142.6c1.467,5.443,6.732,11.072,12.309,12.291s9.409-3.628,9.24-8.84C131.515,193.447,125.627,188.093,119.34,187.257Z" transform="translate(-66.373 -63.86)" />
          <path id="Path_10" data-name="Path 10" d="M160.573,98a10.845,10.845,0,0,0-1.316,0,22.163,22.163,0,0,1-16.72-6.875c-1.965-2.108-3.9-4.26-5.852-6.377a19.121,19.121,0,0,1-5-15.377c0-.3.071-.623.089-.889.222-5.265-3.5-10.485-9.285-9.187-2.9.64-6.679,1.779-8.733,3.833s-2.864,5.745-3.646,8.778c-.08.3-.142.6-.2.889a32.478,32.478,0,0,1-8,15.661c-2.063,2.259-4.144,4.447-6.225,6.67a26.8,26.8,0,0,1-15.439,7.933,8.222,8.222,0,0,1-1.076.187c-7.444,0-11.277,6.3-12.5,11.935s3.664,9.578,8.965,9.64c6.492,0,12.024-5.4,12.922-11.775v-.222c.685-5.505,3.8-10.379,7.559-14.318,3.015-3.122,5.887-6.359,8.8-9.56,3.682-3.966,8.582-7.115,14.069-7.693h.142a16.426,16.426,0,0,1,13.749,4.927c2.828,2.962,5.541,6.021,8.289,9.062a24.448,24.448,0,0,1,6.368,15.724v.267a14.1,14.1,0,0,0,14.043,13.34c6.981,0,12.9-5.487,12.451-12.638C173.611,104.927,167.581,98.586,160.573,98Z" transform="translate(-66.386 -59.053)" />
        </g>
        <path id="Path_215716" data-name="Path 215716" d="M181.767,149.9a11.33,11.33,0,0,0,.044-1.227,21.816,21.816,0,0,1,6.288-15.679c2.01-1.974,4-3.949,5.95-5.985a18.5,18.5,0,0,1,15.11-5.5l.934.053c5.336.124,10.468-3.966,9.16-9.667S216.3,99.81,206.624,99.97a7.27,7.27,0,0,1-.889-.16,26.992,26.992,0,0,1-15.572-8.057q-3.175-3.308-6.225-6.732a32.346,32.346,0,0,1-7.9-15.537c-.062-.347-.142-.7-.24-1.058a18.091,18.091,0,0,0-4.882-7.862,16.223,16.223,0,0,0-7.5-4.518c-5.718-1.272-9.409,3.913-9.24,9.08.222,6.59,5.959,12.122,12.451,12.949h.231c5.5.6,10.414,3.629,14.149,7.613,2.935,3.193,5.781,6.457,8.8,9.569,3.718,3.9,6.884,8.76,7.515,14.23v.133a16.818,16.818,0,0,1-4.562,13.642c-2.712,2.881-5.336,5.816-8.218,8.582a22.82,22.82,0,0,1-15.074,6.225h-.329c-7.115.356-13.554,5.932-13.66,13.278a11.748,11.748,0,0,0,12.646,11.882A15.359,15.359,0,0,0,181.767,149.9Z" transform="translate(812.238 579.149)" />
        <path id="Path_215717" data-name="Path 215717" d="M120.13,173.187c.427,0,.889.053,1.3.053,5.994-.071,12.451,2.072,16.64,6.483,1.983,2.054,3.931,4.118,5.914,6.163a18.143,18.143,0,0,1,4.962,14.985c0,.3-.071.6-.089.889-.2,3.646,1.779,7.631,5.381,8.8,4.127,1.343,9.961-.809,13.029-3.557,1.779-1.583,2.526-3.824,3.166-6.136.6-2.108.24-4.135.889-6.279a32.789,32.789,0,0,1,7.3-12.451q3.113-3.406,6.305-6.723a27.925,27.925,0,0,1,15.421-8.093c.347-.053.7-.178,1.076-.222,7.817-1.023,11.295-6.59,12.566-12.237a6.972,6.972,0,0,0-1.7-6.554,9.525,9.525,0,0,0-7.355-2.428,14.4,14.4,0,0,0-12.958,12.068v.222c-.676,5.389-3.815,10.21-7.533,14.025-3.05,3.086-5.923,6.323-8.893,9.507-3.717,3.913-8.555,6.946-14.007,7.559h-.133a16.5,16.5,0,0,1-13.625-4.758c-2.8-2.837-5.532-5.745-8.351-8.564a21.6,21.6,0,0,1-6.359-14.71v-.249c-.285-7.337-6.857-12.869-14-13.029-6.7-.142-12.851,4.731-12.344,11.784C107.181,166.606,113.353,172.555,120.13,173.187Z" transform="translate(817.496 569.191)" />
        <path id="Path_215719" data-name="Path 215719" d="M209.73,84.622c.631.827,2.508,3,1.5,4.144s-3.958.053-5.1-.391A25.462,25.462,0,0,1,192.406,74.6c-.445-1.129-1.61-3.931-.356-5s3.335.889,4.171,1.5a72.251,72.251,0,0,1,7.044,6.474A71.044,71.044,0,0,1,209.73,84.622Z" transform="translate(808.113 577.662)" />
        <path id="Path_215721" data-name="Path 215721" d="M209.733,187.765a71.238,71.238,0,0,1-6.474,7.053,73.183,73.183,0,0,1-7.035,6.465c-.845.631-3,2.5-4.18,1.53s-.089-3.8.347-4.909a25.844,25.844,0,0,1,13.678-13.74c1.147-.471,4.02-1.716,5.14-.507S210.382,186.964,209.733,187.765Z" transform="translate(808.109 565.063)" />
        <path id="Path_215722" data-name="Path 215722" d="M117.29,184.062h-.249c-5.861-.658-11.135-3.958-15.119-8.173-2.366-2.552-4.687-5.14-7.115-7.613-4.029-4.118-7.444-9.249-8.173-15.119v-.311A16.586,16.586,0,0,1,91.606,138.4c1.983-1.868,4-3.7,5.879-5.674a22.687,22.687,0,0,1,16.6-6.768h.311a14.114,14.114,0,0,0,13.945-13.58c.142-7.115-5.461-13.491-12.807-12.984-7.115.489-13.207,6.99-13.7,14.025v.285a25.29,25.29,0,0,1-6.8,16.417c-1.974,1.974-3.966,3.931-6.021,5.834a19.566,19.566,0,0,1-15.074,4.882h-.222a9.463,9.463,0,0,0-7.408,2.392,7.053,7.053,0,0,0-1.779,6.563c1.565,8.075,5.389,11.179,12.709,12.246l.418.1a31.607,31.607,0,0,1,16.008,8.8q2.97,3.05,5.879,6.181a34.453,34.453,0,0,1,8.44,15.635,2.51,2.51,0,0,0,.151.6c1.458,5.434,6.723,11.063,12.308,12.291s9.409-3.628,9.24-8.84C129.456,190.26,123.622,184.9,117.29,184.062Z" transform="translate(822.182 574.333)" />
        <path id="Path_215723" data-name="Path 215723" d="M158.525,94.809a10.842,10.842,0,0,0-1.316-.044,22.18,22.18,0,0,1-16.755-6.83c-1.966-2.117-3.886-4.26-5.843-6.385a19.076,19.076,0,0,1-5-15.368c0-.311.071-.623.08-.889.231-5.265-3.5-10.476-9.276-9.187-2.9.649-6.679,1.779-8.742,3.842s-2.864,5.745-3.637,8.778c-.08.294-.142.587-.2.889a32.612,32.612,0,0,1-8,15.661q-3.077,3.379-6.225,6.661A26.68,26.68,0,0,1,78.173,99.87a10.435,10.435,0,0,1-1.076.2c-7.453,0-11.277,6.3-12.451,11.926-1.245,5.763,3.717,9.632,9.018,9.64,6.5,0,12.033-5.389,12.931-11.766v-.231c.685-5.5,3.8-10.379,7.568-14.318,3.015-3.113,5.879-6.35,8.8-9.552,3.691-3.966,8.591-7.115,14.078-7.693h.142A16.408,16.408,0,0,1,130.92,83c2.837,2.961,5.541,6.021,8.289,9.053a24.528,24.528,0,0,1,6.377,15.732c0,.089,0,.169,0,.258a14.087,14.087,0,0,0,14.034,13.34c6.981,0,12.913-5.5,12.451-12.638C171.554,101.728,165.524,95.387,158.525,94.809Z" transform="translate(822.172 579.143)" />
      </g>
    </g>
  </g>
</svg>
