<svg xmlns="http://www.w3.org/2000/svg" width="13.047" height="15.933" viewBox="0 0 13.047 15.933">
  <path id="Icon_awesome-lock" data-name="Icon awesome-lock" d="M11.649,6.971h-.7V4.73A4.592,4.592,0,0,0,6.523,0,4.592,4.592,0,0,0,2.1,4.73V6.971H1.4A1.449,1.449,0,0,0,0,8.464v5.975a1.449,1.449,0,0,0,1.4,1.494H11.649a1.449,1.449,0,0,0,1.4-1.494V8.464A1.449,1.449,0,0,0,11.649,6.971Zm-3.029,0H4.427V4.73a2.175,2.175,0,0,1,2.1-2.241A2.175,2.175,0,0,1,8.62,4.73Z" fill="#DEDFE1" opacity="0.4"/>
</svg>
