<svg xmlns="http://www.w3.org/2000/svg" xmlns:xlink="http://www.w3.org/1999/xlink" width="224.811" height="129.275" viewBox="0 0 224.811 129.275">
  <defs>
    <linearGradient id="linear-gradient" x1="0.5" x2="0.5" y2="1" gradientUnits="objectBoundingBox">
      <stop offset="0" stop-color="#f2f5fc"/>
      <stop offset="1" stop-color="#fcfdff"/>
    </linearGradient>
  </defs>
  <g id="Group_5960" data-name="Group 5960" transform="translate(-101.594 -352.422)">
    <g id="Group_5959" data-name="Group 5959" transform="translate(38.679 81.087)">
      <path id="Path_216129" data-name="Path 216129" d="M154.119,569.092a7.652,7.652,0,0,1-6.39-2.987,12.641,12.641,0,0,1-2.326-7.978,12.213,12.213,0,0,1,2.316-7.78,7.674,7.674,0,0,1,6.38-2.94q4.424,0,6.258,3.139a35.314,35.314,0,0,1-.189-3.574v-6.711l4.953-.321V568.7h-4.291l-.549-2.836q-.322.51-.6.879a6.323,6.323,0,0,1-.8.851,4.706,4.706,0,0,1-1.144.775,7.7,7.7,0,0,1-1.55.51,9.157,9.157,0,0,1-2.071.218m1.172-3.762q4.991,0,5.066-6.787,0-3.838-1.286-5.6a4.447,4.447,0,0,0-3.837-1.757,4.224,4.224,0,0,0-3.563,1.786,8.733,8.733,0,0,0-1.333,5.266,8.822,8.822,0,0,0,1.333,5.273,4.255,4.255,0,0,0,3.62,1.816" transform="translate(-82.488 -176.724)" fill="url(#linear-gradient)"/>
      <path id="Path_216130" data-name="Path 216130" d="M185.15,572.664q-5.011,0-7.8-2.883t-2.788-7.968a11.369,11.369,0,0,1,2.628-7.884,9.192,9.192,0,0,1,7.165-2.949,8.429,8.429,0,0,1,6.664,2.685,10.372,10.372,0,0,1,2.372,7.127q0,.322-.009,1.04t-.009,1.059h-13.82a6.54,6.54,0,0,0,1.6,4.509,5.505,5.505,0,0,0,4.187,1.6,13.1,13.1,0,0,0,6.541-1.777l.7,3.516a13.85,13.85,0,0,1-7.429,1.929m-5.5-12.893h9.075a5.866,5.866,0,0,0-1.153-3.895,3.964,3.964,0,0,0-3.2-1.361,4.365,4.365,0,0,0-3.223,1.324,6.006,6.006,0,0,0-1.5,3.932" transform="translate(-91.923 -180.297)" fill="url(#linear-gradient)"/>
      <path id="Path_216131" data-name="Path 216131" d="M212.487,572.664q-5.011,0-7.8-2.883t-2.788-7.968a11.369,11.369,0,0,1,2.628-7.884,9.192,9.192,0,0,1,7.165-2.949,8.429,8.429,0,0,1,6.664,2.685,10.372,10.372,0,0,1,2.372,7.127q0,.322-.009,1.04t-.009,1.059H206.89a6.539,6.539,0,0,0,1.6,4.509,5.505,5.505,0,0,0,4.187,1.6,13.1,13.1,0,0,0,6.541-1.777l.7,3.516a13.85,13.85,0,0,1-7.429,1.929m-5.5-12.893h9.075a5.865,5.865,0,0,0-1.153-3.895,3.964,3.964,0,0,0-3.2-1.361,4.365,4.365,0,0,0-3.223,1.324,6.006,6.006,0,0,0-1.5,3.932" transform="translate(-100.768 -180.297)" fill="url(#linear-gradient)"/>
      <path id="Path_216132" data-name="Path 216132" d="M230.689,580.9V551.482h4.253l.53,2.911a7.011,7.011,0,0,1,2.713-2.543,7.916,7.916,0,0,1,3.771-.9,7.4,7.4,0,0,1,4.49,1.418,8.789,8.789,0,0,1,2.94,3.865,14.494,14.494,0,0,1,1,5.53,12.52,12.52,0,0,1-2.334,7.855,7.558,7.558,0,0,1-6.324,3.034,7.977,7.977,0,0,1-3.563-.784,7.771,7.771,0,0,1-2.675-2.127q.151,2.722.151,3.062v7.846Zm9.982-12.023a4.016,4.016,0,0,0,3.488-1.852,9.277,9.277,0,0,0,1.276-5.294,8.881,8.881,0,0,0-1.285-5.256,4.18,4.18,0,0,0-3.574-1.758q-4.915,0-4.972,6.693,0,3.856,1.276,5.662a4.341,4.341,0,0,0,3.791,1.805" transform="translate(-110.084 -180.288)" fill="url(#linear-gradient)"/>
      <path id="Path_216133" data-name="Path 216133" d="M270.788,569.092a7.95,7.95,0,0,1-3.848-.936,6.7,6.7,0,0,1-2.5-2.127l-.491,2.646h-4.292V540.261l4.953-.321v6.428q0,1.872-.114,4.253a7.7,7.7,0,0,1,6.409-3.214,7.413,7.413,0,0,1,6.229,2.949,12.347,12.347,0,0,1,2.259,7.713,12.746,12.746,0,0,1-2.336,7.987,7.5,7.5,0,0,1-6.266,3.035M269.6,565.33a4.126,4.126,0,0,0,3.536-1.872,9.117,9.117,0,0,0,1.323-5.312,8.85,8.85,0,0,0-1.295-5.237,4.116,4.116,0,0,0-3.507-1.777q-5.03,0-5.086,6.787,0,3.819,1.267,5.615a4.3,4.3,0,0,0,3.762,1.8" transform="translate(-119.456 -176.724)" fill="url(#linear-gradient)"/>
      <path id="Path_216134" data-name="Path 216134" d="M297.117,568.979a10.715,10.715,0,0,1-3.544-.5,4.6,4.6,0,0,1-2.221-1.6,6.617,6.617,0,0,1-1.135-2.609,18.433,18.433,0,0,1-.322-3.762V540.262l4.953-.322v20.475a7.461,7.461,0,0,0,.662,3.79,2.88,2.88,0,0,0,2.571.992,17.627,17.627,0,0,0,2.4-.207l.132,3.534q-.019,0-.463.1c-.3.063-.58.116-.85.16s-.615.088-1.031.132a10.848,10.848,0,0,1-1.153.066" transform="translate(-129.241 -176.724)" fill="url(#linear-gradient)"/>
      <path id="Path_216135" data-name="Path 216135" d="M319.123,570.876a11.49,11.49,0,0,1-13.036.01,7.235,7.235,0,0,1-2.466-5.937V551.735h4.972V564.76a4.824,4.824,0,0,0,.973,3.365,4.058,4.058,0,0,0,3.091,1.04,3.961,3.961,0,0,0,3.034-1.03,4.887,4.887,0,0,0,.954-3.375V551.735H321.6v13.214a7.224,7.224,0,0,1-2.476,5.927" transform="translate(-133.682 -180.541)" fill="url(#linear-gradient)"/>
      <path id="Path_216136" data-name="Path 216136" d="M341.014,572.664q-5.01,0-7.8-2.883t-2.789-7.968a11.369,11.369,0,0,1,2.628-7.884,9.192,9.192,0,0,1,7.165-2.949,8.428,8.428,0,0,1,6.664,2.685,10.372,10.372,0,0,1,2.372,7.127q0,.322-.009,1.04t-.01,1.059H335.418a6.539,6.539,0,0,0,1.6,4.509A5.505,5.505,0,0,0,341.2,569a13.1,13.1,0,0,0,6.541-1.777l.7,3.516a13.85,13.85,0,0,1-7.429,1.929m-5.5-12.893h9.074a5.862,5.862,0,0,0-1.153-3.895,3.964,3.964,0,0,0-3.2-1.361,4.366,4.366,0,0,0-3.223,1.324,6.005,6.005,0,0,0-1.5,3.932" transform="translate(-142.356 -180.297)" fill="url(#linear-gradient)"/>
      <path id="Path_216137" data-name="Path 216137" d="M362.157,572.512l-6.3-20.776h5.047l3.99,15.238q.132-.435,2.155-7.43t2.287-7.807h5.086q.245.793,2.174,7.732t2.079,7.449l4.1-15.181h4.972l-6.5,20.776h-4.934q-.247-.812-2.3-8.223t-2.221-8q-.379,1.38-2.411,8.318t-2.353,7.9Z" transform="translate(-150.586 -180.541)" fill="url(#linear-gradient)"/>
      <path id="Path_216138" data-name="Path 216138" d="M410.4,572.664a9.2,9.2,0,0,1-7.26-2.987,13.107,13.107,0,0,1,0-15.8,9.6,9.6,0,0,1,7.467-2.9,9.264,9.264,0,0,1,7.289,2.959,13.076,13.076,0,0,1-.028,15.786,9.567,9.567,0,0,1-7.467,2.94m.132-3.762a4.293,4.293,0,0,0,3.781-1.834,11.578,11.578,0,0,0,0-10.53,4.887,4.887,0,0,0-7.609.009,9.177,9.177,0,0,0-1.276,5.284,9.056,9.056,0,0,0,1.285,5.237,4.359,4.359,0,0,0,3.819,1.834" transform="translate(-165.029 -180.297)" fill="url(#linear-gradient)"/>
      <path id="Path_216139" data-name="Path 216139" d="M431.132,572.467V551.69h4.159l.643,3.176a6.564,6.564,0,0,1,5.917-3.27,9.474,9.474,0,0,1,1.323.075l-.076,4.141a10.537,10.537,0,0,0-1.569-.114,5.325,5.325,0,0,0-4.093,1.456,5.718,5.718,0,0,0-1.352,4.046v11.267Z" transform="translate(-174.941 -180.496)" fill="url(#linear-gradient)"/>
      <path id="Path_216140" data-name="Path 216140" d="M448.407,568.7V540.262l4.953-.322V552.7l-.114,4.2c.013-.013.141-.139.388-.379l.406-.4q1.04-1.229,2.259-2.533t3.082-3.195q1.862-1.89,2.428-2.477h5.9l-8.545,8.847,9.093,11.929h-5.993l-6.844-9.433-2.06,1.626V568.7Z" transform="translate(-180.531 -176.724)" fill="url(#linear-gradient)"/>
    </g>
    <g id="Group_5958" data-name="Group 5958" transform="translate(1796.052 -2057.285)">
      <path id="Path_216141" data-name="Path 216141" d="M135.577,556.484a65.744,65.744,0,0,0-2.764-6.057c-1.095-2.127-2.308-4.2-3.516-6.27a101.521,101.521,0,0,0-6.337-9.34c-2.475-3.329-5.134-6.518-7.895-9.631-1.049-1.183-2.118-2.347-3.179-3.522l-.1.067c.42,1.212.873,2.414,1.253,3.638a88.845,88.845,0,0,1,2.451,9.567,76.715,76.715,0,0,1,.372,27.221,85.082,85.082,0,0,1-2.293,10.073c-.59,2.034-1.283,4.043-2.024,6.031-.816,2.19-1.665,4.377-2.637,6.506-1.178,2.582-2.5,5.107-3.762,7.654-.18.364-.383.731-.583,1.1h18.9q11.4-17.588,12.233-36.614a2.831,2.831,0,0,0-.116-.423" transform="translate(-1709.129 1888.044)" fill="#028cbc"/>
      <path id="Path_216142" data-name="Path 216142" d="M144.571,592.173c.391-1.318.808-2.631,1.1-3.97a47.858,47.858,0,0,0,.986-10.833,80.023,80.023,0,0,0-2.555-18.641c-.32-1.261-.662-2.517-.993-3.775l0,0c-.14-.417-.287-.831-.42-1.25q-.516-1.615-1.024-3.235l-.17-.341-.021-.04c-2.585-7.271-8.943-18.957-11.206-20.546A76.3,76.3,0,0,1,134,551.539c.023,1.348-.007,2.686-.063,4.022q-.8,19.045-12.233,36.614h22.867Z" transform="translate(-1706.201 1889.39)" fill="#06b3f7"/>
    </g>
  </g>
</svg>
