<svg xmlns="http://www.w3.org/2000/svg" width="18.043" height="22.535" viewBox="0 0 18.043 22.535">
  <g id="Mail_Notifications" data-name="Mail Notifications" transform="translate(0)">
    <path id="Union_5" data-name="Union 5" d="M4831.73,16245.8a2.548,2.548,0,0,1-.729-1.8h5a2.545,2.545,0,0,1-.729,1.8,2.584,2.584,0,0,1-3.541,0Zm-6.23-2.8a.281.281,0,0,1-.261-.1c-.1,0-.171-.154-.188-.2a.5.5,0,0,1-.053-.2.73.73,0,0,1,.1-.3l.4-.5v-8.7a8.113,8.113,0,0,1,2.34-5.7,7.932,7.932,0,0,1,5.659-2.3,8.334,8.334,0,0,1,2.112.272,4.448,4.448,0,0,0-.562,1.93,6.14,6.14,0,0,0-1.549-.2,5.736,5.736,0,0,0-4.24,1.8,5.818,5.818,0,0,0-1.757,4.2v8h12v-8a5.789,5.789,0,0,0-.09-1.035h.13a4.467,4.467,0,0,0,1.835-.388,8.034,8.034,0,0,1,.126,1.423v8.7l.4.5a.676.676,0,0,1,.1.3.475.475,0,0,1-.048.2c-.021.045-.09.2-.188.2a.28.28,0,0,1-.261.1Zm10.54-15.535a3.484,3.484,0,1,1,0,.035Z" transform="translate(-4824.998 -16223.967)" fill="#fff"/>
  </g>
</svg>
