<svg id="Group_5102" data-name="Group 5102" xmlns="http://www.w3.org/2000/svg" width="22.328" height="14.181" viewBox="0 0 22.328 14.181">
  <path id="Icon_awesome-grip-lines" data-name="Icon awesome-grip-lines" d="M21.63,16.832H.7a.7.7,0,0,0-.7.7v1.4a.7.7,0,0,0,.7.7H21.63a.7.7,0,0,0,.7-.7v-1.4A.7.7,0,0,0,21.63,16.832Zm0-5.582H.7a.7.7,0,0,0-.7.7v1.4a.7.7,0,0,0,.7.7H21.63a.7.7,0,0,0,.7-.7v-1.4A.7.7,0,0,0,21.63,11.25Z" transform="translate(0 -11.25)" fill="#f1f2f4"/>
  <path id="Icon_awesome-grip-lines-2" data-name="Icon awesome-grip-lines" d="M21.63,16.973H.7a.709.709,0,0,0-.7.715V19.12a.709.709,0,0,0,.7.715H21.63a.709.709,0,0,0,.7-.715V17.689A.709.709,0,0,0,21.63,16.973Zm0-5.723H.7a.709.709,0,0,0-.7.715V13.4a.709.709,0,0,0,.7.715H21.63a.709.709,0,0,0,.7-.715V11.965A.709.709,0,0,0,21.63,11.25Z" transform="translate(0 -5.654)" fill="#f1f2f4"/>
</svg>
