<svg xmlns="http://www.w3.org/2000/svg" width="27.166" height="21.733" viewBox="0 0 27.166 21.733">
  <path id="Icon_awesome-eye-slash" data-name="Icon awesome-eye-slash" d="M13.583,16.978a6.089,6.089,0,0,1-6.066-5.65L3.065,7.887a14.147,14.147,0,0,0-1.559,2.36,1.373,1.373,0,0,0,0,1.239,13.614,13.614,0,0,0,12.077,7.53,13.184,13.184,0,0,0,3.306-.444l-2.2-1.7a6.118,6.118,0,0,1-1.1.111ZM26.9,19.444l-4.692-3.627a14.06,14.06,0,0,0,3.449-4.332,1.373,1.373,0,0,0,0-1.239,13.614,13.614,0,0,0-12.077-7.53,13.08,13.08,0,0,0-6.253,1.6L1.93.143A.679.679,0,0,0,.976.262L.143,1.335a.679.679,0,0,0,.119.953l24.974,19.3a.679.679,0,0,0,.953-.119l.834-1.073A.679.679,0,0,0,26.9,19.444Zm-7.8-6.027-1.668-1.29a4.022,4.022,0,0,0-4.928-5.175,2.023,2.023,0,0,1,.4,1.2,1.98,1.98,0,0,1-.065.424L9.714,6.159a6.04,6.04,0,0,1,3.869-1.405,6.109,6.109,0,0,1,6.112,6.112,5.967,5.967,0,0,1-.59,2.551Z" transform="translate(0 0)" fill="#a1aab2"/>
</svg>
