<svg width="19" height="25" viewBox="0 0 19 25" fill="none" xmlns="http://www.w3.org/2000/svg">
<path fill-rule="evenodd" clip-rule="evenodd" d="M3.40598 0H11.7643L18.8483 7.38382V21.7454C18.8483 23.5445 17.3927 25 15.5999 25H3.40598C1.60688 25 0.151367 23.5445 0.151367 21.7454V3.25461C0.151336 1.45552 1.60685 0 3.40598 0V0Z" fill="#E5252A"/>
<path opacity="0.302" fill-rule="evenodd" clip-rule="evenodd" d="M11.7578 0V7.32759H18.848L11.7578 0Z" fill="white"/>
<path d="M3.76758 18.6534V14.0869H5.71037C6.19138 14.0869 6.57245 14.2181 6.8598 14.4867C7.14715 14.7491 7.29084 15.1052 7.29084 15.5487C7.29084 15.9922 7.14715 16.3483 6.8598 16.6106C6.57245 16.8793 6.19138 17.0104 5.71037 17.0104H4.93575V18.6534H3.76758ZM4.93575 16.0172H5.57918C5.75408 16.0172 5.89152 15.9797 5.98524 15.8923C6.07893 15.8111 6.12893 15.6986 6.12893 15.5487C6.12893 15.3988 6.07896 15.2863 5.98524 15.2051C5.89155 15.1177 5.75411 15.0802 5.57918 15.0802H4.93575V16.0172ZM7.77183 18.6534V14.0869H9.38977C9.70836 14.0869 10.0082 14.1306 10.2893 14.2244C10.5704 14.318 10.8266 14.4493 11.0514 14.6304C11.2763 14.8053 11.4575 15.0427 11.5887 15.3425C11.7136 15.6424 11.7823 15.986 11.7823 16.3733C11.7823 16.7543 11.7136 17.0979 11.5887 17.3977C11.4575 17.6976 11.2763 17.935 11.0514 18.1099C10.8265 18.291 10.5704 18.4222 10.2893 18.5159C10.0082 18.6096 9.70836 18.6534 9.38977 18.6534H7.77183ZM8.91501 17.6601H9.25233C9.43349 17.6601 9.60216 17.6414 9.75833 17.5977C9.90825 17.5539 10.0519 17.4852 10.1894 17.3915C10.3206 17.2978 10.4268 17.1666 10.5017 16.9917C10.5767 16.8168 10.6142 16.6106 10.6142 16.3733C10.6142 16.1296 10.5767 15.9235 10.5017 15.7486C10.4268 15.5737 10.3206 15.4425 10.1894 15.3488C10.0519 15.2551 9.90828 15.1864 9.75833 15.1427C9.60216 15.0989 9.43349 15.0802 9.25233 15.0802H8.91501V17.6601ZM12.3695 18.6534V14.0869H15.6179V15.0802H13.5377V15.811H15.1994V16.7981H13.5377V18.6534H12.3695Z" fill="white"/>
</svg>
