<?xml version="1.0" encoding="utf-8"?>
<!-- Generator: Adobe Illustrator 22.1.0, SVG Export Plug-In . SVG Version: 6.00 Build 0)  -->
<svg version="1.1" id="Layer_1" xmlns="http://www.w3.org/2000/svg" xmlns:xlink="http://www.w3.org/1999/xlink" x="0px" y="0px"
	 viewBox="0 0 53.2 53.2" style="enable-background:new 0 0 53.2 53.2;" xml:space="preserve">
<style type="text/css">
	.st0{fill:#637885;}
	.st1{fill:#FFFFFF;}
</style>
<g>
	<path class="st0" d="M53.2,26.6c0,7.7-3.3,14.7-8.5,19.5c-4.7,4.4-11.1,7.1-18.1,7.1c-7,0-13.3-2.7-18.1-7.1
		C3.3,41.3,0,34.3,0,26.6C0,11.9,11.9,0,26.6,0C41.3,0,53.2,11.9,53.2,26.6z"/>
	<circle class="st1" cx="26.6" cy="23.4" r="9"/>
	<path class="st1" d="M44.7,46.1c-4.7,4.4-11.1,7.1-18.1,7.1c-7,0-13.3-2.7-18.1-7.1c3.3-6.7,10.1-11.3,18.1-11.3
		S41.4,39.5,44.7,46.1z"/>
</g>
</svg>
