<svg xmlns="http://www.w3.org/2000/svg" width="22.123" height="20.644" viewBox="0 0 47.123 50.644">
  <g id="Sent" transform="translate(-538.55 -1928.15)">
    <path id="Path_220933" data-name="Path 220933" d="M585.619,1959.231v-7.509q-4.254,3.3-8.418,6.545c-1.781,1.4-3.563,2.782-5.345,4.163-.945.746-1.89,1.473-2.836,2.219,5.563,4.272,11.036,8.49,16.653,12.816v-18.234Zm-38.706-.964q-4.145-3.19-8.363-6.436v9.563h.037v16.053c.054.018.09.037.145.055,5.491-4.272,10.981-8.527,16.508-12.835-.891-.673-1.764-1.364-2.655-2.037Z" fill="#a3a5aa"/>
    <path id="Path_220934" data-name="Path 220934" d="M540.489,1950.471h16.477v-9.506H552.9a1.14,1.14,0,0,1-1.162-.622,1.088,1.088,0,0,1,.285-1.278q4.584-5.212,9.171-10.422a1.117,1.117,0,0,1,1.873.034q4,4.53,7.989,9.067c.4.45.8.9,1.191,1.348a1.073,1.073,0,0,1-.825,1.869c-1.366.006-2.733,0-4.148,0v9.427h16.586c-.633.5-1.137.9-1.647,1.3q-9.316,7.243-18.634,14.487a1.97,1.97,0,0,1-2.916,0q-9.327-7.183-18.658-14.363c-.517-.4-1.029-.8-1.543-1.2Zm18.648,3.3h5.957v-13.342c0-1.3.279-1.576,1.583-1.577h2.536l-7.1-8.037-7.077,8.038c.991,0,1.809,0,2.627,0,1.144,0,1.476.331,1.476,1.463q0,6.376,0,12.753Z" fill="#a3a5aa"/>
    <path id="Path_220935" data-name="Path 220935" d="M540.55,1978.794c.742-.581,1.443-1.133,2.147-1.68q6.948-5.394,13.89-10.794a.539.539,0,0,1,.812.01c.724.593,1.471,1.16,2.219,1.723a3.835,3.835,0,0,0,5.011-.015c.877-.67,1.747-1.348,2.644-2.04l16.453,12.649-.028.147Z" fill="#a3a5aa"/>
    <path id="Path_220936" data-name="Path 220936" d="M544.4,1933.49c0-1.4-.011-2.806,0-4.209a1.041,1.041,0,0,1,1.017-1.112,1.024,1.024,0,0,1,1.078.99,4,4,0,0,1,.025.559q0,3,0,6.005c0,.655.026,1.311-.01,1.964a1.056,1.056,0,0,1-1.49,1.048,1.073,1.073,0,0,1-.63-1.092c.009-1.384,0-2.768,0-4.153Z" fill="#a3a5aa"/>
    <path id="Path_220937" data-name="Path 220937" d="M578.145,1933.491c0-1.384-.011-2.769.005-4.153a1.066,1.066,0,1,1,2.122-.016c.008,2.787.012,5.575,0,8.362a1.084,1.084,0,0,1-1.051,1.159,1.109,1.109,0,0,1-1.07-1.2C578.137,1936.259,578.145,1934.875,578.145,1933.491Z" fill="#a3a5aa"/>
    <path id="Path_220938" data-name="Path 220938" d="M578.148,1943.2c0-.131-.008-.262,0-.393a1.083,1.083,0,0,1,1.049-1.1,1.054,1.054,0,0,1,1.061,1.023,5.072,5.072,0,0,1,0,1.009,1.027,1.027,0,0,1-1.063,1.013,1.071,1.071,0,0,1-1.047-1.1C578.14,1943.5,578.148,1943.353,578.148,1943.2Z" fill="#a3a5aa"/>
    <path id="Path_220939" data-name="Path 220939" d="M544.343,1943.2a4.417,4.417,0,0,1,.193-.917.936.936,0,0,1,1.061-.559.911.911,0,0,1,.857.831,5.484,5.484,0,0,1,.014,1.28.972.972,0,0,1-1.079.909,1.051,1.051,0,0,1-.987-1.029c-.012-.167,0-.336,0-.505Z" fill="#a3a5aa"/>
  </g>
</svg>
