<svg xmlns="http://www.w3.org/2000/svg" width="20" height="20" viewBox="0 0 20 20">
  <path id="Settings" d="M3528,7738.36a10.52,10.52,0,0,1,.32-2.593,2.99,2.99,0,0,0,1.58-.373,3.188,3.188,0,0,0,1.091-4.43,10,10,0,0,1,4.329-2.6,3.13,3.13,0,0,0,1.11,1.245,2.93,2.93,0,0,0,3.14,0,3.033,3.033,0,0,0,1.1-1.244,9.97,9.97,0,0,1,4.34,2.6,3.243,3.243,0,0,0-.49,1.607,3.19,3.19,0,0,0,1.57,2.823,2.956,2.956,0,0,0,1.59.373,10.661,10.661,0,0,1,0,5.186,2.954,2.954,0,0,0-2.75,1.556,3.215,3.215,0,0,0,.081,3.248,9.966,9.966,0,0,1-4.34,2.6,3.034,3.034,0,0,0-1.1-1.245,2.931,2.931,0,0,0-3.139,0,3.133,3.133,0,0,0-1.11,1.244,9.992,9.992,0,0,1-4.33-2.6,3.164,3.164,0,0,0-1.09-4.429,2.9,2.9,0,0,0-1.579-.375,10.5,10.5,0,0,1-.321-2.593Zm4.8,3.112a5.385,5.385,0,0,1,.57,3.652,8.218,8.218,0,0,0,1.29.778,4.893,4.893,0,0,1,6.679,0,8.179,8.179,0,0,0,1.291-.778,5.224,5.224,0,0,1,3.34-5.987,10.1,10.1,0,0,0,0-1.556,5.2,5.2,0,0,1-3.34-5.985,7.274,7.274,0,0,0-1.3-.778,4.879,4.879,0,0,1-6.67,0,7.537,7.537,0,0,0-1.29.777,5.223,5.223,0,0,1-3.34,5.986,10.1,10.1,0,0,0,0,1.557A4.988,4.988,0,0,1,3532.8,7741.472Zm5.2,0a3.029,3.029,0,0,1-2.945-2.5,3.137,3.137,0,0,1,1.792-3.483,2.94,2.94,0,0,1,3.643,1.143,3.2,3.2,0,0,1-.37,3.93,2.947,2.947,0,0,1-2.12.914Zm0-2.075a1,1,0,0,0,.962-.834,1.036,1.036,0,0,0-.6-1.144.971.971,0,0,0-1.2.383,1.055,1.055,0,0,0,.124,1.294,1.01,1.01,0,0,0,.71.3Z" transform="translate(-3528 -7728.36)" fill="#d1d8e3"/>
</svg>
