<svg id="Group_4942" data-name="Group 4942" xmlns="http://www.w3.org/2000/svg" width="42.099" height="42.391" viewBox="0 0 42.099 42.391">
  <g id="Logo_Icon" data-name="Logo Icon" transform="translate(0 0)">
    <g id="Group_8" data-name="Group 8" transform="translate(0.521 0.814)" opacity="0.08">
      <path id="Path_57" data-name="Path 57" d="M700.72,709.86a3.282,3.282,0,0,0,.015-.354,6.22,6.22,0,0,1,1.8-4.488c.573-.568,1.146-1.131,1.7-1.714a5.3,5.3,0,0,1,4.313-1.577,2.247,2.247,0,0,0,.267.015,2.39,2.39,0,0,0,2.621-2.769c-.374-1.633-.846-3.462-3.614-3.416a1.792,1.792,0,0,1-.255-.043,7.755,7.755,0,0,1-4.458-2.308q-.912-.95-1.783-1.928a9.289,9.289,0,0,1-2.264-4.453,2.822,2.822,0,0,0-.066-.3,5.2,5.2,0,0,0-1.4-2.249,4.611,4.611,0,0,0-2.147-1.294c-1.635-.367-2.693,1.118-2.644,2.6a4.069,4.069,0,0,0,3.566,3.709h.066a6.685,6.685,0,0,1,4.055,2.18c.838.917,1.656,1.849,2.517,2.743a7.294,7.294,0,0,1,2.155,4.076v.041a4.84,4.84,0,0,1-1.307,3.907c-.779.825-1.541,1.663-2.356,2.456a6.539,6.539,0,0,1-4.318,1.783h-.1a4.029,4.029,0,0,0-3.913,3.8,3.365,3.365,0,0,0,3.313,3.416q.16,0,.319-.01A4.394,4.394,0,0,0,700.72,709.86Z" transform="translate(-669.929 -682.922)" fill="#266cd5"/>
      <path id="Path_58" data-name="Path 58" d="M639,800.042a3,3,0,0,0,.372.015,6.582,6.582,0,0,1,4.768,1.86c.566.586,1.126,1.179,1.691,1.765a5.2,5.2,0,0,1,1.424,4.29c0,.087-.02.173-.026.255a2.475,2.475,0,0,0,1.528,2.522,4.363,4.363,0,0,0,3.732-1.019,3.5,3.5,0,0,0,.909-1.76c.168-.6.069-1.185.255-1.8a9.424,9.424,0,0,1,2.091-3.566q.894-.97,1.809-1.923a8,8,0,0,1,4.409-2.326c.1-.015.2-.048.308-.064a4.14,4.14,0,0,0,3.6-3.505,2,2,0,0,0-.489-1.877,2.713,2.713,0,0,0-2.1-.693,4.125,4.125,0,0,0-3.714,3.457v.061a7.254,7.254,0,0,1-2.16,4.02c-.871.884-1.7,1.811-2.547,2.72a6.672,6.672,0,0,1-4.009,2.168h-.041a4.733,4.733,0,0,1-3.9-1.365c-.8-.81-1.582-1.646-2.392-2.451a6.207,6.207,0,0,1-1.818-4.216v-.069a4.047,4.047,0,0,0-4.007-3.732,3.276,3.276,0,0,0-3.536,3.373A4.368,4.368,0,0,0,639,800.042Z" transform="translate(-624.357 -769.288)" fill="#266cd5"/>
      <path id="Path_59" data-name="Path 59" d="M605.6,700.854a7.228,7.228,0,0,1-3.918,3.928c-.326.125-1.154.464-1.465.1s.255-.95.433-1.195a32.532,32.532,0,0,1,3.869-3.869c.255-.188.858-.713,1.195-.418S605.725,700.525,605.6,700.854Z" transform="translate(-596.681 -695.879)" fill="#266cd5"/>
      <path id="Path_60" data-name="Path 60" d="M743.468,703.643c.178.237.718.858.43,1.19s-1.134.015-1.465-.115a7.275,7.275,0,0,1-3.928-3.943c-.127-.326-.461-1.128-.1-1.431s.953.255,1.192.43a20.365,20.365,0,0,1,2.017,1.852A20.7,20.7,0,0,1,743.468,703.643Z" transform="translate(-705.838 -695.83)" fill="#266cd5"/>
      <path id="Path_61" data-name="Path 61" d="M605.609,841.769c.127.321.456,1.118.1,1.424s-.95-.24-1.2-.428a33.031,33.031,0,0,1-3.869-3.869c-.183-.239-.718-.858-.423-1.182s1.149,0,1.472.135A7.341,7.341,0,0,1,605.609,841.769Z" transform="translate(-596.687 -805.147)" fill="#266cd5"/>
      <path id="Path_62" data-name="Path 62" d="M743.495,838.878a20.679,20.679,0,0,1-1.854,2.017,20.365,20.365,0,0,1-2.017,1.852c-.24.184-.859.716-1.195.438s-.028-1.085.1-1.4a7.417,7.417,0,0,1,3.925-3.938c.329-.133,1.151-.492,1.472-.145S743.67,838.646,743.495,838.878Z" transform="translate(-705.865 -805.129)" fill="#266cd5"/>
      <path id="Path_63" data-name="Path 63" d="M598.873,760.01H598.8a7.221,7.221,0,0,1-4.33-2.341c-.675-.731-1.342-1.47-2.038-2.178a7.773,7.773,0,0,1-2.341-4.33v-.084a4.739,4.739,0,0,1,1.411-4.147c.566-.535,1.144-1.06,1.684-1.623a6.473,6.473,0,0,1,4.753-1.938h.089a4.05,4.05,0,0,0,4-3.9,3.549,3.549,0,0,0-3.671-3.719,4.442,4.442,0,0,0-3.925,4.014v.084a7.216,7.216,0,0,1-1.949,4.7c-.565.566-1.136,1.126-1.722,1.668a5.6,5.6,0,0,1-4.313,1.4h-.064a2.726,2.726,0,0,0-2.124.685,2.038,2.038,0,0,0-.509,1.88,3.779,3.779,0,0,0,3.64,3.51,1.059,1.059,0,0,1,.122.028,9.053,9.053,0,0,1,4.585,2.517q.853.879,1.684,1.783a9.873,9.873,0,0,1,2.42,4.478.7.7,0,0,0,.041.171,5.218,5.218,0,0,0,3.525,3.52,2.274,2.274,0,0,0,2.647-2.532A4.063,4.063,0,0,0,598.873,760.01Z" transform="translate(-583.702 -724.667)" fill="#266cd5"/>
      <path id="Path_64" data-name="Path 64" d="M610.79,694.121a3.135,3.135,0,0,0-.377,0,6.347,6.347,0,0,1-4.789-1.969c-.563-.6-1.116-1.22-1.676-1.826a5.477,5.477,0,0,1-1.431-4.4c0-.087.02-.178.025-.255.064-1.508-1-3-2.659-2.631a5.4,5.4,0,0,0-2.5,1.1,5.645,5.645,0,0,0-1.044,2.514c-.023.087-.041.171-.056.255a9.3,9.3,0,0,1-2.292,4.485c-.591.647-1.187,1.274-1.783,1.911a7.678,7.678,0,0,1-4.422,2.272,2.429,2.429,0,0,1-.308.053c-2.132,0-3.23,1.8-3.579,3.418a2.39,2.39,0,0,0,2.568,2.761,3.9,3.9,0,0,0,3.7-3.373v-.064a7.438,7.438,0,0,1,2.165-4.1c.864-.894,1.686-1.821,2.522-2.738a6.6,6.6,0,0,1,4.03-2.2h.041a4.7,4.7,0,0,1,3.938,1.411c.81.848,1.587,1.724,2.374,2.6a7,7,0,0,1,1.824,4.5v.076a4.038,4.038,0,0,0,4.022,3.821,3.467,3.467,0,0,0,3.566-3.62A4.393,4.393,0,0,0,610.79,694.121Z" transform="translate(-583.813 -682.967)" fill="#266cd5"/>
    </g>
    <path id="Path_65" data-name="Path 65" d="M698.268,705.975a3.249,3.249,0,0,0,.013-.351,6.249,6.249,0,0,1,1.8-4.491c.576-.565,1.146-1.131,1.7-1.714a5.3,5.3,0,0,1,4.328-1.574l.268.015A2.392,2.392,0,0,0,709,695.091c-.374-1.633-.846-3.462-3.617-3.416a2.069,2.069,0,0,1-.255-.046,7.732,7.732,0,0,1-4.46-2.308q-.909-.947-1.783-1.928a9.267,9.267,0,0,1-2.262-4.45c-.018-.1-.041-.2-.069-.3a5.178,5.178,0,0,0-1.4-2.252,4.646,4.646,0,0,0-2.147-1.294c-1.638-.364-2.7,1.121-2.647,2.6a4.076,4.076,0,0,0,3.566,3.709H694a6.674,6.674,0,0,1,4.053,2.18c.841.914,1.656,1.849,2.519,2.741a7.323,7.323,0,0,1,2.152,4.076v.038a4.817,4.817,0,0,1-1.307,3.907c-.777.825-1.528,1.666-2.354,2.458a6.535,6.535,0,0,1-4.318,1.783h-.094a4.032,4.032,0,0,0-3.912,3.8,3.365,3.365,0,0,0,3.316,3.413c.1,0,.2,0,.306-.01A4.4,4.4,0,0,0,698.268,705.975Z" transform="translate(-667.478 -679.038)" fill="#266cd5"/>
    <path id="Path_66" data-name="Path 66" d="M636.545,796.188c.122,0,.255.015.372.015a6.561,6.561,0,0,1,4.766,1.857c.568.588,1.126,1.179,1.694,1.765a5.2,5.2,0,0,1,1.421,4.292c0,.086-.02.173-.025.254a2.487,2.487,0,0,0,1.541,2.522,4.348,4.348,0,0,0,3.732-1.019,3.454,3.454,0,0,0,.907-1.757c.171-.6.069-1.185.255-1.8a9.391,9.391,0,0,1,2.091-3.566q.891-.975,1.806-1.926a8,8,0,0,1,4.417-2.318c.1-.015.2-.051.308-.064a4.139,4.139,0,0,0,3.6-3.505,2,2,0,0,0-.486-1.877,2.728,2.728,0,0,0-2.107-.7,4.125,4.125,0,0,0-3.711,3.456v.064a7.25,7.25,0,0,1-2.157,4.017c-.874.884-1.7,1.811-2.547,2.723a6.69,6.69,0,0,1-4.012,2.165h-.038a4.725,4.725,0,0,1-3.9-1.363c-.8-.812-1.584-1.646-2.392-2.453a6.189,6.189,0,0,1-1.821-4.213v-.071a4.051,4.051,0,0,0-4.009-3.732,3.278,3.278,0,0,0-3.536,3.375A4.347,4.347,0,0,0,636.545,796.188Z" transform="translate(-621.905 -765.433)" fill="#266cd5"/>
    <path id="Path_67" data-name="Path 67" d="M603.056,696.97a7.219,7.219,0,0,1-3.928,3.925c-.326.125-1.154.466-1.465.1s.255-.948.431-1.192a20.328,20.328,0,0,1,1.852-2.015,20.965,20.965,0,0,1,2.01-1.857c.255-.186.861-.713,1.195-.418S603.184,696.641,603.056,696.97Z" transform="translate(-594.142 -691.993)" fill="#266cd5"/>
    <path id="Path_68" data-name="Path 68" d="M740.917,699.754c.181.237.718.858.43,1.187s-1.134.015-1.462-.112a7.293,7.293,0,0,1-3.93-3.946c-.127-.324-.461-1.126-.1-1.431s.955.254,1.195.43a20.669,20.669,0,0,1,2.017,1.854A20.382,20.382,0,0,1,740.917,699.754Z" transform="translate(-703.3 -691.94)" fill="#266cd5"/>
    <path id="Path_69" data-name="Path 69" d="M603.115,837.885c.125.321.456,1.118.1,1.421s-.95-.239-1.2-.425A21.333,21.333,0,0,1,600,837.027a20.36,20.36,0,0,1-1.854-2.018c-.181-.237-.718-.858-.42-1.182s1.146,0,1.472.138A7.359,7.359,0,0,1,603.115,837.885Z" transform="translate(-594.194 -801.261)" fill="#266cd5"/>
    <path id="Path_70" data-name="Path 70" d="M740.941,835a20.4,20.4,0,0,1-1.854,2.02,21.023,21.023,0,0,1-2.015,1.852c-.242.181-.859.716-1.2.438s-.025-1.088.1-1.406a7.4,7.4,0,0,1,3.918-3.936c.329-.135,1.151-.492,1.472-.145S741.127,834.769,740.941,835Z" transform="translate(-703.325 -801.25)" fill="#266cd5"/>
    <path id="Path_71" data-name="Path 71" d="M596.385,756.161h-.071a7.228,7.228,0,0,1-4.33-2.341c-.677-.731-1.342-1.472-2.038-2.18a7.75,7.75,0,0,1-2.341-4.33v-.089a4.751,4.751,0,0,1,1.424-4.137c.568-.535,1.146-1.06,1.684-1.625a6.5,6.5,0,0,1,4.756-1.939h.089a4.043,4.043,0,0,0,3.994-3.89,3.546,3.546,0,0,0-3.668-3.719,4.444,4.444,0,0,0-3.925,4.017v.081a7.244,7.244,0,0,1-1.949,4.7c-.566.565-1.136,1.126-1.725,1.671a5.6,5.6,0,0,1-4.318,1.4H583.9a2.71,2.71,0,0,0-2.122.685,2.02,2.02,0,0,0-.51,1.88,3.773,3.773,0,0,0,3.64,3.508l.12.028a9.051,9.051,0,0,1,4.585,2.519q.851.874,1.684,1.77a9.869,9.869,0,0,1,2.417,4.478.73.73,0,0,0,.043.173,5.219,5.219,0,0,0,3.526,3.52,2.272,2.272,0,0,0,2.647-2.532A4.056,4.056,0,0,0,596.385,756.161Z" transform="translate(-581.215 -720.818)" fill="#266cd5"/>
    <path id="Path_72" data-name="Path 72" d="M608.314,690.248a3.15,3.15,0,0,0-.377-.013,6.354,6.354,0,0,1-4.8-1.956c-.563-.607-1.113-1.22-1.674-1.829a5.463,5.463,0,0,1-1.432-4.4c0-.089.02-.178.023-.255.066-1.508-1-3-2.657-2.631a5.427,5.427,0,0,0-2.5,1.1,5.6,5.6,0,0,0-1.042,2.514c-.023.084-.041.168-.056.255a9.34,9.34,0,0,1-2.292,4.486q-.881.968-1.783,1.908A7.642,7.642,0,0,1,585.3,691.7a3.059,3.059,0,0,1-.308.056c-2.135,0-3.23,1.8-3.566,3.416a2.378,2.378,0,0,0,2.583,2.761,3.894,3.894,0,0,0,3.7-3.37v-.066a7.433,7.433,0,0,1,2.168-4.1c.864-.892,1.684-1.819,2.519-2.736a6.614,6.614,0,0,1,4.032-2.2h.041a4.7,4.7,0,0,1,3.936,1.411c.813.848,1.587,1.725,2.374,2.593a7.025,7.025,0,0,1,1.827,4.506v.074a4.035,4.035,0,0,0,4.02,3.821,3.467,3.467,0,0,0,3.566-3.62A4.437,4.437,0,0,0,608.314,690.248Z" transform="translate(-581.337 -679.091)" fill="#266cd5"/>
  </g>
</svg>
