<svg xmlns="http://www.w3.org/2000/svg" width="17.635" height="17.635" viewBox="0 0 17.635 17.635">
  <g id="Group_5213" data-name="Group 5213" transform="translate(-117.603 -16.298)">
    <g id="Layer_2" data-name="Layer 2" transform="translate(116 10)">
      <g id="icons_Q2" data-name="icons Q2" transform="translate(1.603 6.298)">
        <path id="Path_215821" data-name="Path 215821" d="M10.817,2a8.777,8.777,0,1,0,6.247,2.571A8.817,8.817,0,0,0,10.817,2ZM3.643,9.976A7.214,7.214,0,0,1,15.306,5.166L5.166,15.306a7.254,7.254,0,0,1-1.523-5.33Zm7.976,8.016a7.294,7.294,0,0,1-5.33-1.563l10.14-10.1a7.054,7.054,0,0,1,1.563,5.33A7.254,7.254,0,0,1,11.619,17.991Z" transform="translate(-2 -2)" fill="#d4dae5"/>
      </g>
    </g>
  </g>
</svg>
