<svg xmlns="http://www.w3.org/2000/svg" width="27.945" height="27.909" viewBox="0 0 27.945 27.909">
  <g id="Group_5343" data-name="Group 5343" transform="translate(-281 -375.091)">
    <path id="Workflow" d="M28.15,8.876H22.561V5.938A2.859,2.859,0,0,0,19.767,3H14.178a2.859,2.859,0,0,0-2.794,2.938V8.876H5.794a2.848,2.848,0,0,0-2.78,2.938L3,27.971a2.859,2.859,0,0,0,2.794,2.938H28.15a2.859,2.859,0,0,0,2.794-2.938V11.813A2.859,2.859,0,0,0,28.15,8.876Zm-8.383,0H14.178V5.938h5.589Z" transform="translate(278 372.091)" fill="#a1aab2"/>
  </g>
</svg>
